<mxfile host="app.diagrams.net" modified="2022-01-12T14:18:09.865Z" agent="5.0 (Macintosh; Intel Mac OS X 10_15_2) AppleWebKit/605.1.15 (KHTML, like Gecko) Version/13.0.4 Safari/605.1.15" etag="DSawH824aaooqGBrgKB5" version="15.9.1" type="github">
  <diagram id="-uz1Rn0zQsr9ndRPAgWC" name="Page-1">
    <mxGraphModel dx="1012" dy="1683" grid="0" gridSize="10" guides="1" tooltips="1" connect="1" arrows="1" fold="1" page="1" pageScale="1" pageWidth="827" pageHeight="1169" math="0" shadow="0">
      <root>
        <mxCell id="0" />
        <mxCell id="1" parent="0" />
        <mxCell id="28LgO0DFCYYeMGnvJ6AU-4" value="" style="shape=image;verticalLabelPosition=bottom;labelBackgroundColor=#ffffff;verticalAlign=top;aspect=fixed;imageAspect=0;image=data:image/png,iVBORw0KGgoAAAANSUhEUgAAAswAAACMCAYAAABoFv9fAAABVWlDQ1BJQ0MgUHJvZmlsZQAAKJFjYGBSSSwoyGFhYGDIzSspCnJ3UoiIjFJgv8/AxcDHwMvAwWCRmFxc4BgQ4ANUwgCjUcG3awyMIPqyLsisYEe+lb/O3vwdfqakrff9YXtM9SiAKyW1OBlI/wHi8uSCohIGBkYgZlAuLykAsWcA2SJFQEcB2WtA7HQI+wCInQRhXwGrCQlyBrJfANkCyRmJKUD2DyBbJwlJPB2JDbUXBGSDfQNCXBWCAhRMjA11jXSNDAzMFVycPRU0Aow1CbifZFCSWgHyH4NzfkFlUWZ6RomCIzDUUhU885L1dBSMDAxNGRhAcQBR/ZQFErZfQhFiNaUMDFYc////P40QCwL6aesNBgZuQYSYeiXQm0D2iYCCxKJEuAOYZs4qTjM2ArMZhZ4xMHC+////Wx8DA58VMC5P/P//J+T//39A8xijGRju3AcAUsdo4oKsoIsAAACKZVhJZk1NACoAAAAIAAQBGgAFAAAAAQAAAD4BGwAFAAAAAQAAAEYBKAADAAAAAQACAACHaQAEAAAAAQAAAE4AAAAAAAAAkAAAAAEAAACQAAAAAQADkoYABwAAABIAAAB4oAIABAAAAAEAAALMoAMABAAAAAEAAACMAAAAAEFTQ0lJAAAAU2NyZWVuc2hvdJOJal0AAAAJcEhZcwAAFiUAABYlAUlSJPAAAAHWaVRYdFhNTDpjb20uYWRvYmUueG1wAAAAAAA8eDp4bXBtZXRhIHhtbG5zOng9ImFkb2JlOm5zOm1ldGEvIiB4OnhtcHRrPSJYTVAgQ29yZSA1LjQuMCI+CiAgIDxyZGY6UkRGIHhtbG5zOnJkZj0iaHR0cDovL3d3dy53My5vcmcvMTk5OS8wMi8yMi1yZGYtc3ludGF4LW5zIyI+CiAgICAgIDxyZGY6RGVzY3JpcHRpb24gcmRmOmFib3V0PSIiCiAgICAgICAgICAgIHhtbG5zOmV4aWY9Imh0dHA6Ly9ucy5hZG9iZS5jb20vZXhpZi8xLjAvIj4KICAgICAgICAgPGV4aWY6UGl4ZWxYRGltZW5zaW9uPjcxNjwvZXhpZjpQaXhlbFhEaW1lbnNpb24+CiAgICAgICAgIDxleGlmOlVzZXJDb21tZW50PlNjcmVlbnNob3Q8L2V4aWY6VXNlckNvbW1lbnQ+CiAgICAgICAgIDxleGlmOlBpeGVsWURpbWVuc2lvbj4xNDA8L2V4aWY6UGl4ZWxZRGltZW5zaW9uPgogICAgICA8L3JkZjpEZXNjcmlwdGlvbj4KICAgPC9yZGY6UkRGPgo8L3g6eG1wbWV0YT4KAyNBgAAAABxpRE9UAAAAAgAAAAAAAABGAAAAKAAAAEYAAABGAAAlOHu12vQAACUESURBVHgB7J0HuB1FGYYn9F6FEEC6dIh0kFCkBVCpIgIxEQglKB2MioI+VCU0BUJLCEVAQZrSkSggSkkChKoQivQqvbPOO/LvM2fu7rnn7Dm35Ob7n+fe3bPTv5md+eaff2b7ZV6cRAgIASEgBISAEBACQkAICIFCBPqJMBfioodCQAgIASEgBISAEBACQiAgUJcwDx8+3I0ZM0ZQCQEhIASEgBAQAkJACAiBqQ6BcePGuWHDhrWc704J89ixY93kyZNbTkgRCAEhIASEgBAQAkJACAiB7kBg4sSJbujQoa5bCfPnn3/eHWVTGkJACAgBISAEhIAQEAJCoGUE7rzzTrfBBhuIMLeMpCIQAkJACAgBISAEhIAQ6JMIiDD3yWpVoYSAEBACQkAICAEhIATahYAIc7uQVDxCQAgIASEgBISAEBACfRIBEeY+Wa0qlBAQAkJACAgBISAEhEC7EBBhbheSikcICAEhIASEgBAQAkKgTyIgwtwnq1WFEgJCQAgIASEgBISAEGgXAiLM7UJS8QgBISAEhIAQEAJCQAj0SQREmPtktapQQkAICAEhIASEgBAQAu1CQIS5XUgqHiEgBISAEBACQkAICIE+iYAIc5+sVhVKCEybCGRZ5m644QZ33333uUmTJrkpU6a4BRZYwC277LJu0KBBbpdddnH9+vWbNsFpodSvv/66u+yyy0IMu+++u5ttttkajq2VsA0nIo9CQAgIgS5GQIS5iwFW9EJACHQPAm+88YYbOnSou+6660oTXHvttd15553nVllllVI/06rD7bff7l555RW38soru+WXX74GhsmTJ7tVV101PHvxxRfdQgstVOPeStiaiPRDCAgBIdBLERBh7qUVo2wJASHQOAKPP/64Gzx4sHvmmWdCoDXXXNNtuummboUVVnBoOG+55RZ34403BrcBAwYE7XP//v0bT2Aa8Lnuuuu6u+++2x1zzDHuiCOOqClxTJgh1WjtY2klbByP7oWAEBACvRWBdhNm55dES2XPPffM/HJoqbschIAQEAJVENhiiy0y38lm008/feYJX/bZZ591iOass84KfvC37bbbdnCf1h+ss846AR/wS+XTTz/NPFHOXnvttdQp/G4lbGGEeigEhIAQ6GUI3HHHHaGPHDduXFtyFthw2exg+PDhbuzYse7zzz8v86LnQkAICIGmELj11lvd5ptvHsIcfPDB7uSTTy4M73s4t9566wUt6owzzug8+XNzzTVXoV/csIHGzGOllVZyyy23nCNMkRDvBx98EJzMtpfwDzzwgEPzOvvss+fBPJEPz9999123+uqruznmmCN3q3fz8ccfu7vuusvNNNNMbrXVVnOzzjprPe/BjX4WzfvLL7/sBg4c6Oadd97CMJ4MO+LfeOON3b333uuOPPJIN3LkyJBGZ/berYRNM1MFcz9BcjPPPHOIysIvssgiwaRkuummS5PQbyEgBIRAZQSkYW7LPEGRCAEh0FMIbLPNNmHW78ln0ILWy4cnhBn++bv//vs7eEWLutVWW+WaaN+zhntvxpFdddVVHfzz4MEHH8z9e5OGbP311888WQvPZplllqDNfuedd7LTTz898+Q594uf/fbbrzBOb2MdtOXnnHNOtuuuu9aE88Q9O/744zNPiAvDog32pLcmDCt73gY5Gz9+fIcw559/fp4nKy9Xv8kv90sZ0d7z522Y8+ethLVIWsF87rnnzp5++ulsrbXWqimDnwhl1157rSWhqxAQAkKgZQTarWGWSUbLVaIIhIAQaAYBfwJGIEs77LBDM8E6+H3ppZeyhRdeOMTlNbmZ1w5nmHpAyoxInnnmmR3CxYTZ/JKnRRddNA+39NJL5/fe/jeD9Fqcp512Woc4V1xxxeBu/iDafsNi5rWpeTivTe8QDlMUM08h/mWWWSbDXALizm/iu/DCC2vCMREgPa+1Dn7mnHPO8DsmnHEZY8LcSlgy0Q7MF1xwwZDvJZZYIvMbFvPJCnVYNCmqKbx+CAEhIAQaRECEuUGg5E0ICIHeh8Ann3ySk89DDjmkpQzuu+++gXjNM888GZpiE29ukXlzheCG5vL55583p3CNySRabm8iEp5DXk37DVmFNF9//fXBvvqtt94KZJbn22+/fU18/DDCjLs/xi378MMPg5/33nsv23LLLUNeZphhhuyxxx6rCTtmzJjghib4ggsuyN3QcMdleP/993M3u6lnhxyXMSbMrYZtB+ZMBpjImMbdn9iRtwm/edGyqKsQEAJCoCUERJhbgk+BhYAQ6EkE/KkYgSBCLIs0tY3mDU0nBJR4Tj311A7B/EkbYcMy7t5GusY9JpNHH310jdvZZ5+d5+/qq6+ucTvqqKOC21JLLVXznB9GmBdffPHM2zvXuL/66qsZpJ68pITQNOQHHnhgTRh+EM5MRS666KIO7t1NmNuFOeYnqVhZhgwZkjrptxAQAkKgEgIizJVgUyAhIAR6AwJof40EnnLKKZWzdNtttwUCiq2v3+hXGI/f+Bf87LPPPjXuMWGONdN4uummm0IYyG2qmTX7X8w4UjHCPGzYsNQp/N5kk01CvN/97ndzdzTfpMPfFVdcEcwdIKXxnz9fObiPGDEiD2c3RjKLTsmIy5iWg/BVwrYLc3/knRUhv+6xxx6hnDoNJYdEN0JACLSIgAhziwAquBAQAj2LALarkMQirWpRziZMmJD5LwEGImnubK4jDuxhy2SnnXYKfjbbbLMaLzGZfOGFF2rc/PnPIQxxp0fdNUKYi8grCey///4hXoiqCRv6SKeRv5133tmC5dcqpNcCVwnbLsyZEKTCZkpwEGFOkdFvISAEqiIgwlwVOYUTAkKgVyBgNr0bbbRRp/m55557ckJ56aWX5v5HjRoVnkO+y2TDDTcMftLNhTFhfvPNN2uCx4TZbGzNgz9iM8RXT8OMSUeRMDmAEPpj8nLna665JjzjuT96LkMLXfbHKRupVCG9FkeVsF2FOXkSYbaa0VUICIF2ISDC3C4kFY8QEAI9ggCnRZhWFUJcT/bee+/gF9MLjjMzufLKK8NzTpHgWLZU2Fzoz1gOfg477LAa564kzIceemhNWvaDjYKUOTbJePjhh8MznseTAQvT2bUK6bU4q4TtKszJkwiz1YyuQkAItAsBEeZ2Ial4hIAQ6BEEnnrqqYzTKSCKaIE5EaJI/IdEMo5Mwx8nRsTy0EMP5WTz8ssvj53CPWYchOPv4osvrnHvSsIca5AtUYi+kXfMGkw4SYPTMcjjbrvtZo/zKydsLLnkkiFs0fF4VUivRV4lbFdhTp5EmK1mdBUCQqBdCIgwtwtJxSMEhECPIcBHQYzQ+i/zhWPh0AojbAzkvGA7I5ljyNLj2PA3aNCgEAdnF0PCTTiCzcwxFltsscx/Fc+cwrUrCTNlOu644/L0yMt2220X8ok2nI92xMKGRMJQ1okTJ+ZOH330UbbXXnvl4Z577rnczW6s/Bxjl0pcxqJNf1XDWrh2Yk7eRZjTGtRvISAEWkVAhLlVBBVeCAiBHkcA++D0C3185IMPiNjHPyCSaJjjL9jFGeeEC/PLsW2cobzjjjvmHyDhNI5LLrkkDhLuYzLZbhtmmwRgW7311lvneeF50akg/vPQYeMi7kwMBg8eHM555ug6i+ukk07qUAYeYP6BH8rJpMPOk8YtLmMRYa4atiswJ78izKAgEQJCoJ0IiDC3E03FJQSEQI8hAGlmIx1f0jNyaFdsltkAF2uOizKKDXRMLi38/PPPn918881FQTIzLSCNt99+u8aPnVyBqUSVTX+HH354xmeyLR9cIcKc4VwmaI833XTTmjCE69+/f8ZGuzKZNGlS/jEV/MdfBLQy8pzznFNpJWy7MSdvBxxwQCi/TslIa0q/hYAQqIpAuwlzPzLiO9VCGT58uPMDmvMDR6G7HgoBISAEWkXAH9/mnnjiCffII484b9frPAF2XmPqvJ1zQ1F7Uw736KOPOm/z7PzHTNzAgQOd11SH+4YiaIMn8kv+R48e7fzX8Nyzzz7r7rzzTjfffPO5NdZYw/lJQaepPPnkk85rhp3/8IkbMGCA22CDDZzXutcNB3aU3ZNy5+2dnSf6df3Hjq2E7Q2Yx2XRvRAQAkIgRYA+mH503Lhxzp+Rnzo3/VuEuWnIFEAICAEhUItASphrXfVLCAgBISAEuhsBEebuRlzpCQEhIAQ6QUCEuROA5CwEhIAQ6GYERJi7GXAlJwSEgBDoDAER5s4QkrsQEAJCoHsREGHuXryVmhAQAkKgUwQOOuggN2XKFDdixAjnT//o1L88CAEhIASEQNciIMLctfgqdiEgBISAEBACQkAICIGpHAER5qm8ApV9ISAEhIAQEAJCQAgIga5FQIS5a/FV7EJACAgBISAEhIAQEAJTOQI9QphPPPHEqRw2ZV8ICAEhIASEgBAQAkJgWkHAf/jKnXHGGe7YY491P/3pT1sudqfnMI8ZM6blRBSBEBACQkAICAEhIASEgBDobgT4CN+5557bcrKdEma+9McXrCRCQAgIASEgBISAEBACQmBqQGDChAluyJAh+RdYW81zQ4RZn8ZuFWaFFwJCQAgIASEgBISAEOguBHrEhlmEubuqV+kIASEgBISAEBACQkAItIqACHOrCCq8EBACQkAICAEhIASEQJ9GQIS5T1evCicEhIAQEAJCQAgIASHQKgIizK0iqPBCQAgIASEgBISAEBACfRqBHiHMo0eP7tOgqnBCQAgIASEgBISAEBACfQeBJ554wo0aNcqdcMIJbuTIkS0XrNNTMnQOc8sYKwIhIASEgBAQAkJACAiBHkCgW89hvueee3qgiEpSCAgBISAEhIAQEAJCQAg0j8D999/v9tprL3f66ae7H/zgB81HkIToVMPMh0t0rFyCmn4KASEgBISAEBACQkAI9FoEesSGWYS517YHZUwICAEhIASEgBAQAkIgQUCEOQFEP4WAEBACQkAICAEhIASEQIyACHOMhu6FgBAQAkJACAgBISAEhECCgAhzAoh+CgEhIASEgBAQAkJACAiBGAER5hgN3QsBISAEhIAQEAJCQAgIgQQBEeYEkHb95IDryy+/3M0777xu3333bTjad955x1144YXB/7Bhw9wcc8wR7l9//XV32WWXhfvdd9/dzTbbbA3HWeTx2muvdQ8//LBba6213GabbVbkpfDZWWed5T777LPgtvbaa4fwhR6/eHjLLbe4f/3rX+HXEkss4b7xjW/U895jblXx+O9//+t+97vf1c33Agss4MCK8k+tUtYumy3PBRdc4K6++mp34oknumWWWabZ4FOd/6rtqisLOnHiRPePf/wjJDHddNOF/qlfv36lSaZtfKeddnILLrhgqf+ecnjzzTcd/RNyyCGHuJlnnrmnsqJ024TAG2+8EeqUserJJ590M8wwg1tyySXd6quv7vbYYw8399xztyml3hXN3XffHT6OwRFmW2+9de/KXBfk5oYbbnBTpkxxK620ktt4440bTuHXv/514CO0hf79+zccrqrHdhNml9WRPffcM/Mdcx0ffcfpD3/4Q+YrJfvKV77SVKGefvrpEI6wzzzzTB72wQcfzJ+/+OKL+fOqNzvssEOI78ADD2wqCj8I5fnYZJNN6ob1p6FkX/7yl3P/njTW9d+M42uvvZb5CUl2xRVXNBOs1G9VPB5//PG8fNRZvT/f0WeTJk0qzUNvdihrl+S50bp4/vnnsznnnDNbYYUVMj/p6pXF/dvf/hba1aOPPtqW/FVtV21JvCSS448/vqad3n777SU+///4vPPOq/F//fXX1/XfqGOj7abR+OI+0pPnRoPJXy9F4JJLLsnmm2++mrYX969zzTVXdu655/bS3LeWrQ8//DBbZJFFwt/bb7/dWmRTQWjrJ/fZZ5+mcjvTTDOF9tFd4+odd9wR0hs3blxT+SzzLML8BTJdSZhfeeWVMvwbfm4NtBXC7LVT2UsvvVSa5t///veazq6dhNnPSEPcXuNQmn4zDlXxiAnzaqutlg0ePLjmb8MNN8zmn3/+HAe/YpD985//bCZrvcJvPcLcaF3svPPOAYeLL764V5SpKBPrrLNOyOMxxxxT5Nz0s6rtqumEmgiQEmZ/AH/d0JtvvnnefiEs7SLMjbabupmLHEWYIzCm8tv77rsvMzLkV+iyn/zkJxkTt5NOOinzK6y52/TTT9+29tjbIPMfxwjvXbNjdG8rRyP5sX6ys74ojcvaiAhzisxU9rvdhPnTTz/NIMpoZdoh1kCbfRljDTODJy91mRB3rBHo64TZL7+XQZF5U4SMzh089t9//1J/vdWhVcJ81113hbIvtdRSGW25t8q0SJj9UmZpnbz66qsZk9L4PRZh7q2tt+/ky8YnVuW8WUaHgkGQvvSlL4V22c5xpUNCPfgALTOTBcaNyZMn92BOuj7pt956K/CbDz74oKnERJibgqs1z5g8/PnPf84gA2WCWcF7770X/or80KhxT0lASpg//vjjzNslZd5+M/O2WBnxFkk9YlLkP37GMiRaXUwVmKGTrzKxDskIM0vk/pPl2a233prVW840wrzooouGzmqDDTYoTILysaTEQGvXzjo2cLn55puz2267LXv33XcL4+Xh+++/n1111VUhbgZzyvnRRx8V+qd+KNdFF12UeXvqrMycpSoesYa5HmEmc2AFHgMHDizMqz2kLh555JFs/PjxhYOF+bMrWD/22GOhLUNmYlMe82PXqu25rF02Whdo3in7CSecYFnJr0V5gqjRFtN2wHs2YcKEDNMJb1edx1F2gx/q/5prrsn+/e9/l3nLPvnkk9COvE1/yOeRRx4ZfpO3InnuuedCnLzn5KfMxKRquypKs13PTMPs7ZCzGWecMZT3L3/5S2H0Z599dnC39506rEeYe/IdLtIwo2S47rrrMm8DW1pHhQVv8mEz72AcdaPtKA7Du0E/6fe0BCLF2FIm9Ivx+IRZFJr9F154oTBIs31PYSRteEjbpK15G9XS2A444IDgZ9ZZZ+0w/saBmsWYvoC2hEkIfVC9FV3ru4zoUResINJ3lwkTAJb2/WeWO22TP/7xj0MZhwwZUhZdlzynX683rtIP446/MmmmnZbFET8nLfrauD5EmGOE/D0DI8vaI0aMSFya+wmJZKa23HLLhYEOO0peSPtjOd1vTusQKYOt+SkikltuuWVwP+qoo2rCxoQZ7aLfpJfHQ3wrrrhi9sADD9SE4UcZMeEFJv/8paSPTu5nP/tZRsdheeWKyQRLWSmZJx0byNF2QprnmWeePCx25ttss00G2UzFCLNpj/FLh5QKdpHkAf9+02O4LyPMaAtMs2f5hwhDXo4++ugOk4vFF188z6v5X3755dMsBPu2FHcIAnZS6SBTFY9mCPNuu+0W8k3bKxLqCaI2++yz5+UD31VXXbW0A/YbuAJOhoNdaedF7atqey5rl43UBUTV8lVkwhMTHSaV66+/fmi7hJllllmybbfdNpBjVjNibGjf++23XxGU4RltH5tpS5sr2tQdd9yxAzbnn39+jT8LAymJBcKx0UYbdfBL+ysaJKu2qzjNonveOfYHQGTHjh1b5KX0mRFmv+ky8xuKQln23nvvQv/sUwCLgw46KC9zEWHuDe9w3I6YHDMx5f2xusTm9aabbiosZysPm30HSavZdkQYiMJWW22Vl8fKNWDAgKBAwE8q3//+94P/X/ziF9mxxx6brxakNphV+p40rfR3K23UxrKRI0em0ea/H3rooYwlfMYwyFsqVTD2G7gz2olha1cIa9HqrvWLjCuMBX7TWgjrN3in2cnIr9+sWBO3PxQg490rGmuJAMUJeSD+ovQ7JFLw4LDDDgv9xMorr1zgWvzI9h5hjlUkTGTIF4Q1VWpUaaff/va3A7cp4nnUo98ImLdd3mnK8qc//Sk3zZFJxhe19Mc//jFUzCqrrFJUbw0/MwIL2LbEyCDHko+9FAyu//nPf2ri9LvJc/d6hJnBORZLz+KG6H71q18NFc1Az3PIQKr1shcQ91hTGA8GKWGGZFk6bDJkkCYte3booYfGWQv3NpBbXrCthbQuvPDCeTi/87RDOCPMdLgsr5PGKaec0sHfD3/4w+AG2eGFxV8RYWZDw9JLLx3c6agYwBmkY6LDAB+LP9UjW2yxxUIY4mXygQYzFiYQVn7iWm+99XJtGs8hALFUxaNRwgxBh8SSNhOIVJj0bLHFFnmeITPUB22EMHSY/vSUmmCQT9PEQCTBhQHVJj8MOvFsnMBV23NZu2ykLn7729+GMrC8WCRx2/a73oPfZZddNnTyVofWRvhNPOBhbqeddlqHaM8444zcnQkH9UucRqCIg2VAE1YsaEc2UNNm+B2vGqCVM7xJm8GRgdHyAe5PPfWURRmuVdtVTSQFP9DkWrq/+c1vCnyUPzLCTN5pU8SDnT2atVhefvnlMIjhbptduE8Jc295h+N2ZP0U/SEkxTRRvE+8s+2SKu9glXZEOtY3U5Z111039Bf2vlAvZ555ZodiGWFOJ7bxPoIqfU+HhAoetNJGBw0aFNolYzXkLO3HCpKreVQFY5Qz4Mgfq6Lf/OY3Qx9gfQZcISWHcb8YK+Hov2NhombKG/rqr33ta1lcJ/wuMj0hDutzLr300jjKhu+/973vhTKxgbJR+dGPfpTjX0TUjfijfIilaju1fjLd9Ae+8VgPkTfeEY8BIsxf1EK7CTMvAw0WrYAJy1tGomlcsVQlGDFh5sXARMKE5U/TlDGziiV+ARshzHR2DP6UC2Iay69+9avwnI4Wf7FYAyXcdtttl7+s+LPNWTTOVGwgQqvFJIHwdN6xEMdCCy0U3JixH3zwweG+iDDbTJUBOy4vGg+IDvFDdlOpt2HIH0+TD5Df+ta3cm0yL/6uu+4a4uRli7USVfGICTOkC9IR/1EmVhhMM8QEhfaWypgxY0K+mFjh3wSTAmbX4MCEIl4CMyJKRwy5MeHeiJw/Zsseh2vV9lzWLom0Xl3g7o8SLK1H3GOiw8SNZVCEdsRKB2XnD9IMWeM5ZJdBiefbb7998G//WCYlHtwOP/xwexyurDRZfEXaRlvpKNr0N3z48BCWtmMnS5DWX//617CSQrxHHHFETXpV21VNJAU/0LowyPJHmZoRI8wMROBo7/SNN95YEw0EjDIx0cCf4ZYS5t7yDsftiIkPphgm9L82+eRda5dUeQertCNbpWNSxiqMCaYAcf9Au4jFCDN1R31jEgiZjFcdq/Q9cRpl9620UfpSU+aQd0grSiAUHbR3ylBPmsWYftreAzhAjA+aTOMHqfIp7hfJJytetMPYXAyzGJvwMxGIFV5XXnllPvkv6nMoo/Uh1GUVYSJAP8FqeKOCNtze9/R9YSXe3DBpjaVqO7UypoQZpR1pocCIlRf0VfFkUYT5i1roCsJctFGNgY6K4SWN7WGrEoyYMMcdtzUu68joCMz+Cbf4BYwJZDwYxC9cPJCh1Y0FQujPcczoPOIw+LEGyqwzndnyEtgLkbpZp8JLhA2W+SPfJuPHjw/PGbToOOoR5lGjRoWlUzTCqaA5JP6i5a16JI1lOsIxuPgzZGuihUxDSnFn2dakKh4xYTYsyq60LQasIjHtkdmUx36wBbPBA1tsE8MVwvzss8/a43DFlIB6P+ecc2qeV23PZe2SyOvVBe6mEUgno7ghcdumc4/FbGjBNMUOMyieE38saDwxsWJJPiUQEFw7qipdliaOMsLM+2Pt5pe//GWcXLhn5z55wZwklqrtKo6j3fdGmG1CzISZvFOGWMz0hHcz7mdSwtxb3uG4HRXV0ZprrhnKWfSOxeVu5r7Zd7BKO0JrZ4Tt1FNP7ZA9f0Z/vnJy8skn17jbOMMkr+yoxCp9T00iXfSDMTReAaaNxn+0TwgnE+hYqmBsK6Joc1NzPeI2E0SUFrHE/WJZ/2Z9GEqyIvNFTEooV6qVtnRstbQZkwoL28p1jTXWCPlC2ROLaeJRisUTi1baqfWTMWFmUmRaZJR/qZhCEOxEmL9ApysIc7psSlJmcwv4bKAyqUowjDBD2orElkJJL+7I4hewEcJM3KZpg1R95zvfCWcTQ7LqiTXQ1JSBMPFSGqQ4lpgw89zMDNAymWCHRLlIA7FBpUjDbGG40lFBaNn0x5K6bTRqljDbQF92TjT1y+AaTwaq4tEMYQYTOoR06RtShxt/nCtNx5P+YT6Ee2zjxbKqhYM0YqNYbwMaGFdtz2Xtkjg7I8xmXlNEYggfE51Ye4YbWmArYzrpM7tjNA31hHpmRYm+ZOjQoXl8zRBmmwSSF9Mux2lirkU54r4D96rtKo673fcpYWapl3LRV5mygMHKJmmUqx5hjvPXk+9w3I5o56lAaCgnE4R2SbPvYJV2RH9IvlGuxH1WXAbrh2PCgbsR5q9//eux9/y+at+TR9DFN0xweXdps5jr2WQXPOwvXUWqgjH7pIivbDJl7wh+4n4o7hfZb1UkKK0Ix0ps2q/z2zT8+IlXCi0uTB5xg8x3p5jCCtIam6OanXaKeyvt1PrJuP3Girs4fcOAegAX/qZJwkxjwbyAl8L+bGkV7Y49s2uqUTUgi65GYCF86YwU/8zSDfx4abIzgmG7/8tsmMtORGCmWZRe/AI2Spg5sovBzuLjymDHC0pHQ9lSsQZatNknzlvaEFPCbPbTzEYRZpxmc/X73/8+POuMMEOK0MzZbDIuB/fNEmYj2mWdX8hU8q8qHjFhZlc1A1r8h406Kwx2+gLlYQk/lriDT8ue/sZcxgSszcQk9sdxS8OGDavRoFuYqu25rF0Sbz3CzOqJ5S22m7T8cI2JTrrUyiqAhU/f23qEmTrARMlMgyyO+NoMYY4/3lHUecflie+rtqs4jnbfp4QZu0yzr2T5GcEuGqxsg2pnhLk3vMP12hFlsmV69lW0S5p9B6u0I1aJqIt6hMl/fTH4YU9BLEaYuRZJ1b6nKK7ueAaBvvfeezNsbOPNeZwOZVIFY9OyF9mBEy+nrFjf4b/2ZknVrAjTRxaJKXAsfL1rrDyzuDDRIwxjOuXvLkHpZmOymQlyvJ3lH0xiaaWdWj8ZE2Yj7PC9MjEzq5SnlPlv9bnt5SgaO6rE7eoF6uxLfxBEq4xGrukSYr20jTCzo7hIWLq3NDlJwKQzgmGzrTLCnC4XW7xxehBekzJiEg8G8QzXwjGI08DYOGaDn5UHG8TUcN8aaBGpbIYwxx0J5BD7U9IlD2YjXI8wYwtt+TQ7tV122SVoS/3nbYNbs4TZ7MPLNJqGWXytikdMmGMbqzhu7tEkUD7K+vOf/7zGmSPPDANMCdCMl/1BdlLhJcZ2jg1OFo9dsbGMpWp7LmuXxF2PMGOSY3lBw1skcdtOyWhMmNPBwtpOqmFGg29mIKRNh4v9HkufkHab0BV1emUmGf5T3qEcbLhKVwiKymTPqrYrC98V15QwkwYrU2Blx1fZpivMXpB6hNnqgfA9+Q7Xa0eUoSsIM/Eijb6DVdoRJi9gW9QP/j/1LJwkhR/aWyxGmMvGylb7njitdt2D5XHHHZel+y/S+LFLt1WQeIWzCsZ2pnNRn0C6pj0FY9qZSb1+0fzQpxOOMbGsX7fnqQkZcRhhRlnV3WJ7SNgLhJjpatFqcSvt1PrJmDBj0w1u1E2ZmAJvmiTMLOdxFFb8ZxtKIAPxc+47MzuIQTbCTIde9KlJ4qNy+GNwMIkJRrochsbLKqyMMPNCFx0ZQwVbepApk7IXMB4MigizhecKjmgxGfwsDUwcYrEG2iphJk5OMCEdTALQWHPPAGxSRpjBz5YS2ZGcLkeZlgs7tlTqkTTLT5G5CfEwE2ZyAdYmVfFolDCTjhHaVNsTTzqq7oS2cnDKCzZzpjFhxSaWqu25rF0Sd726wN3sL1N7atyQuG23gzCz0ZQ2iPYBu+dYMw3pti8vmtbk/7n4//8ywmymYcQLhqnQf9CmbFXF3Ku2KwvfFdciwmzlw3yGia9N7jjWCikjzL3pHa7XjihDVxJm4jep9w4azs20I+x08Y+2L7YZtfSYwJmSJN343RlhbmffY/lp9WpfuGNVuWh1NI7fjj+LvxBXBWPbYF6mZIHAUwf8xSdl1OsXLZ+m/WesqyKmaWXltLvFsITn0AeY+efo0aM7ZKWVdmr9ZEyYWbEFbzhUvM/LEoY3WZ1Mk4TZgIivVmHtOlYOgGOTC0vLjj5LNdB2DiLhWAqKJSYfZYS5LD3sf3BL0yt7AePBICbM4ENnCamMiQH5jAezlBhbA02fE64ZDTP+bSbI8q3N1LHFNSkjzOAJBvwV2YVy+gFuRZqVeiTNtGWY86TawFhjCckxqYpHM4QZExnKE5tVkD4TKttQxlnNqaCpp36p53jJEDMYnkGQUzHSSHrxBLBqey5rl6Rbry5w53g28lGkHcc9btvtIMx2KkeR3WY8MS7SJpUR5hi3onJgUkQZ0xM7qrYrcOkqKSLMDEhma24f2Ik3GZUR5t70DtdrR2DZFYS52XewSjuKTywoOhGFfQu0Pf5Ss6fOCHPVvqer2ibxouyx8rB6USZoY21iF2+GrIIxp1WRZtzm43TRsOKebsyr1y9aeNu0R/j0GFn8QIjpxyH/6Soa7qzyEBZNdXcLexpYoSN9G8dRRKT9NPlqpZ1aPxkT5rhdp0eqkp7ZdpO3qZUw/w8AAP//cibsEgAAD6VJREFU7dx5yFXFH8fxMa203UJbaC81y9SyfSOoELLFSlsJNc2w/hAJkiIiWmgPCrQon5IwtaKokIg2paLFbLHEpdzS1Mq1tKL1/OYzv2Y45z73Xu9zn0mv87wP2L3PmXPmzLxmzpzvzL03k1XZhg8fnrVr167KEc2TXnzxxcwYkx199NHNE1uw5/nnn3f5KK8DDjgg++GHH8LZb731Vrbzzju79DFjxoT9evP3339nu+yyi0sbMWJESFuxYkV26KGHhjxvvvnmkKY3+evtu+++2bJly0L6O++8E6734IMPhv16s3Tp0pDnt99+G9K+/PLLsH/VqlVh/7x588L+qVOnhv168/3332e6tur8+OOPF9Iuvvhit3/06NGF/frju+++C3l+/vnnhfQdd9zRpTU1NYX933zzTThe15LXr7/+GtJlqv0nnHBC2Kc3MtF+/bvlllsKaXfffbfrK0o78MADC2n6Q22mNPUnmeW3999/P+R7++23hyRd76STTnJp+++/f9ivN/V6LFiwIFzr1VdfLeRZ+sc555zjjj377LNLk7LrrrvOpe2+++7ZZ599FtJ///337Nprr3Vp22+/vWsbn3jZZZe5/ccff3z2888/+93u9Y477nBpav/8Vm9/rtQvlXe1tlD6qFGjXFmuvPJK/dlsy/ft9evXF9LffPNNd67a+p9//imkPfXUUy5NZvntmmuucfvVD9etWxeSFi1alB1xxBEhP51fup122mkufdiwYaVJmdpN5Tj44IOzJUuWuPS//vore/rpp0OeTz75ZOG8evtVIZMyf2j8Uvvr34wZM8ocUXnXPffc48qrcTC/XXXVVaEequedd94Zkn/66aeQ9tprr4X9jXQPV+tHKrDGb9XrwgsvDOXXmzlz5gTL9957r5C2uT/quQfr6Ue+Xx5++OGh76lsGmfPOOMMVy+Nk3/88UehyEOHDnVp5fqzP7CescefW+213j7622+/hftUz5v8s8Zf76uvvnLPE7WnjlHb57eWGufHmXy/V56vvPJK1qFDB+dY+hytNi768ixevDjr2LFjaAeNGX775JNPsr322sulXX/99X534fWSSy5x6UOGDCnsr/WPcePGuf59ww031HpK4TiVS87+3+WXX15Iz/9Rbz/146T6Yn47+eST3XXVt7/++uuQNHv27Kxr166hTKVxSjgw8huND3KYOHFilJxNtVwaJWD2N9npp5/uBht/M+hhqpu1dDvvvPNCw+hhqeBdgZrvQHqtFjArfbvttsv69u2bHXfcceHm69GjR7Zp06bC5SrdgPmHQT5g1snnnnuuK4vKpPcKUAcMGJDttttubv9+++2XrVmzpnAd30FjBMzK+Nhjjw0epYFRpYBZ58nDOyqgHjhwYNalS5dQbqWpXho0NAHwmwKr9u3bu+N0/ODBg32Se1UZfL5HHnmka2e1gc9Pg2B+q9ejJQHzoEGD3PX33nvvZgGu2scPABpc+/fvn1100UWFSdlDDz2UL3L20UcfuX6lOmlA0f2lAeeoo44Kdb/33nsL5+iPevpzpX6p/DbXFprIqYylkxSdqy3ft2MEzNOmTQv179y5cyb3fv36uf6ie933L91/jz322P8L8e9/b7zxRneu+oocNRnwmwZlP7Hedddds7POOivTveX7mSZjpQFLvf3KX7PSq4J/f91HH3200mFl91cKmDXh83nqVX3bb5UCZqU3yj1crR+pnJUC5rfffjvUe9KkSTq05q2ee7CefvTxxx9nmjCrXfbYY4/sggsucGOi7intU3+dPHlys3LXEjDXM/Y0u1CZHa3po59++mm2ww47hHbRpPjUU0914+IhhxwSxj3VvVyb1WOsiZTy079jjjkm0wRSAaB379OnT6YFjPxWbVzMH6cg3OfdvXt3t0CjBRSft8bv/OQ+f65f9JoyZUp+d83vr776anftPffcs+Zz8geqj/uy6/X111/PJxfe19tP/ThZGjB/+OGHwUhjrp6Lim00DvtJiMpEwPxvM/hBPNYKs4ISrb516tSp0Ak06Gulodymh8WZZ55ZOF7nKx+/elYaMPuVcc3+b7vtthC8+o6nh225GyS/YqNVbL+pbP7c1atX+93udeXKlWGVwR/jX3Xja/Ap3XzwpgChdKu2wrzTTju5cjzzzDOF0+67775QvpdffrmQdtNNN7m00hVmHaTVaQ1Evrx61Y0wcuRIN5nwKwXar1llfvMDgdK02p/ftJKqVWs/GfL5a1Wt3IOlXo/86vrmVph9MKayKGgp3eSufuHL6l8VYJd+EuHPfeKJJzLfJv54vWrVRX1SDqVbPf25Ur/0eVdrC600+XZYuHChPyW8+r6tiVHpSvn06dOdhyZHta4wK2N9QuEfRt6lW7du2bvvvpu99NJLmR4e2q9JSX7TwKtVPH9OaT/XylZ+lVrHqdyaoJVOZJVvvf0qX6Zy7/MP6pYGzPfff7+rX+kKs4IBBWOqkyb3+U0Te9VTafkVZh3TKPdwtX6kctYSMD/77LM6tEVbPfdgS/uRCjRz5szCBNr3Ua1QvvHGG2XL7D9t0adU1bZ6xp5q+SmtNX1U58+dOzcsBvm65l/1ydpzzz2nQ8tuLTVW/9fiju/n+WtdccUVzRa3dNHNjYv5gk2YMCFMuH3eupaCwPzkNH+ODHSsxs+1a9fmk2p+7ydN9QbMupAWF1QOTdDKPVPyhamnn/pxstwquFZ199lnH3d976ZPD7WY0bNnT7d/Ww2Y3fctbKXKbnbAMvZjUGMffGXT/8udL7zwgrn00kuNDT6MXak09uYwduZk7EBh7APQ2BVSYztv1SLYmbj54osvjA3oTK9evYx9uFQ9Pp/4559/mg8++MDYYMWceOKJrhz59Na+tx3W2K9nGDvDc3WzM3Jz2GGHGTsRMHb1obXZ/6fn24+ojL3JjA2mjJ19u7awqwvhmnbgMzqmd+/exgZOYb/eqC3VLnalz9gBoZCmP+wnBq7NfvzxR+eh/PN5NzuhAXbYlRljV8uMDVKMXV0w9pMQYwPgiiWzQaaxX0Mx9qM/Y2fe7hw7CXGvFU+yCa3pz+XyrdYWNqA0doXE3HrrrcautpQ7Pfo+3duzZs1yfeeUU05xfcRfZOPGja5fqD9oTMhv9oHg7iXd53Y1q1mf07H261LGTuDcGGAfJs3yyOfXFt5v6/fw8uXLjV3lc/3FfhrR4iar9x5saT/Sc0TjvPqeDaKM7nP1Yb2PsbV07Ilxzc3lYb/+ZOzH8e75oNjhoIMOcnXWc7uWraXGelboOa/r2km2M7aTkloutdljNKYrbzuZcHGE2k/XqLTZRRbz8MMPGxv0GvvVr0qHNdz+2P1U8Zpd+HN9X7GXXQjcKs9xPWf1PLZfyTD2KzKtdt9mAuZW15QMEECgZgE9JBSI2E94XLDZ6JOWmivGgdu8gIIw+ymYsd9PNRs2bIgWfG7zMFRgqwr88ssvbhKnRbb58+cb+8nXVi0PFzduYSpmwBz9O8z5pf7WvPc/wtPH22wIILDlBfyPR8aPH7/lL84VEaggoO8w6zvA+nEUGwKNIvDAAw+4rxvoayJsjSEQ+0d/rDAzDUMAgbICWimxP8B0XxHSR7+sMpdlYucWFrC/JXFfzdNXvtgQaAQBfZXQ/i7HfU3Ufr/Z2B+8NUKx2nwZ2sxXMvQd2bvuust959D+kKfNNzwACGwNAftDDaPfE4wdO9Y9ELZGGbgmAggg0MgC9sd+5pFHHjH2/x5h7I8CG7mobapsbSZgblOtSmURQAABBBBAAAEEogkQMEejJCMEEEAAAQQQQACBFAUImFNsVeqEAAIIIIAAAgggEE2AgDkaJRkhgAACCCCAAAIIpChAwJxiq1InBBBAAAEEEEAAgWgCBMzRKMkIAQQQQAABBBBAIEUBAuYUW5U6IYAAAggggAACCEQTIGCORklGCCCAAAIIIIAAAikKEDCn2KrUCQEEEEAAAQQQQCCaAAFzNEoyQgABBBBAAAEEEEhRgIA5xValTggggAACCCCAAALRBAiYo1GSEQIIIIAAAggggECKAgTMKbYqdUIAAQQQQAABBBCIJkDAHI2SjBBAAAEEEEAAAQRSFCBgTrFVqRMCCCCAAAIIIIBANAEC5miUZIQAAggggAACCCCQogABc4qtSp0QQAABBBBAAAEEogkQMEejJCMEEEAAAQQQQACBFAUImFNsVeqEAAIIIIAAAgggEE2AgDkaJRkhgAACCCCAAAIIpChAwJxiq1InBBBAAAEEEEAAgWgCBMzRKMkIAQQQQAABBBBAIEUBAuYUW5U6IYAAAggggAACCEQTIGCORklGCCCAAAIIIIAAAikKEDCn2KrUCQEEEEAAAQQQQCCaAAFzNEoyQgABBBBAAAEEEEhRgIA5xValTggggAACCCCAAALRBAiYo1GSEQIIIIAAAggggECKAgTMKbYqdUIAAQQQQAABBBCIJkDAHI2SjBBAAAEEEEAAAQRSFCBgTrFVqRMCCCCAAAIIIIBANAEC5miUZIQAAggggAACCCCQogABc4qtSp0QQAABBBBAAAEEogkQMEejJCMEEEAAAQQQQACBFAUImFNsVeqEAAIIIIAAAgggEE2AgDkaJRkhgAACCCCAAAIIpChAwJxiq1InBBBAAAEEEEAAgWgCBMzRKMkIAQQQQAABBBBAIEUBAuYUW5U6IYAAAggggAACCEQTIGCORklGCCCAAAIIIIAAAikKEDCn2KrUCQEEEEAAAQQQQCCaAAFzNEoyQgABBBBAAAEEEEhRgIA5xValTggggAACCCCAAALRBAiYo1GSEQIIIIAAAggggECKAgTMKbYqdUIAAQQQQAABBBCIJkDAHI2SjBBAAAEEEEAAAQRSFCBgTrFVqRMCCCCAAAIIIIBANAEC5miUZIQAAggggAACCCCQogABc4qtSp0QQAABBBBAAAEEoglslYB58eLF0SpARggggAACCCCAAAII/JcCs2bNMoMHDzYTJ040Q4YMafWl2mV2q5TLiBEjTFNTU6Vk9iOAAAIIIIAAAggg0LACWyRgnjZtmpk9e3bDIlAwBBBAAAEEEEAAAQQqCZx//vmmd+/elZJr3l91hbnmXDgQAQQQQAABBBBAAIFEBQiYE21YqoUAAggggAACCCAQR4CAOY4juSCAAAIIIIAAAggkKkDAnGjDUi0EEEAAAQQQQACBOAIEzHEcyQUBBBBAAAEEEEAgUQEC5kQblmohgAACCCCAAAIIxBEgYI7jSC4IIIAAAggggAACiQoQMCfasFQLAQQQQAABBBBAII4AAXMcR3JBAAEEEEAAAQQQSFSAgDnRhqVaCCCAAAIIIIAAAnEE/gd9AHdNgYr/fAAAAABJRU5ErkJggg==;" parent="1" vertex="1">
          <mxGeometry x="203" y="616" width="477" height="93.27" as="geometry" />
        </mxCell>
        <mxCell id="28LgO0DFCYYeMGnvJ6AU-5" value="" style="shape=image;verticalLabelPosition=bottom;labelBackgroundColor=#ffffff;verticalAlign=top;aspect=fixed;imageAspect=0;image=data:image/png,iVBORw0KGgoAAAANSUhEUgAAAmoAAACKCAYAAAAaCWbUAAABVWlDQ1BJQ0MgUHJvZmlsZQAAKJFjYGBSSSwoyGFhYGDIzSspCnJ3UoiIjFJgv8/AxcDHwMvAwWCRmFxc4BgQ4ANUwgCjUcG3awyMIPqyLsisYEe+lb/O3vwdfqakrff9YXtM9SiAKyW1OBlI/wHi8uSCohIGBkYgZlAuLykAsWcA2SJFQEcB2WtA7HQI+wCInQRhXwGrCQlyBrJfANkCyRmJKUD2DyBbJwlJPB2JDbUXBGSDfQNCXBWCAhRMjA11jXSNDAzMFVycPRU0Aow1CbifZFCSWgHyH4NzfkFlUWZ6RomCIzDUUhU885L1dBSMDAxNGRhAcQBR/ZQFErZfQhFiNaUMDFYc////P40QCwL6aesNBgZuQYSYeiXQm0D2iYCCxKJEuAOYZs4qTjM2ArMZhZ4xMHC+////Wx8DA58VMC5P/P//J+T//39A8xijGRju3AcAUsdo4oKsoIsAAACKZVhJZk1NACoAAAAIAAQBGgAFAAAAAQAAAD4BGwAFAAAAAQAAAEYBKAADAAAAAQACAACHaQAEAAAAAQAAAE4AAAAAAAAAkAAAAAEAAACQAAAAAQADkoYABwAAABIAAAB4oAIABAAAAAEAAAJqoAMABAAAAAEAAACKAAAAAEFTQ0lJAAAAU2NyZWVuc2hvdD8hwlkAAAAJcEhZcwAAFiUAABYlAUlSJPAAAAHWaVRYdFhNTDpjb20uYWRvYmUueG1wAAAAAAA8eDp4bXBtZXRhIHhtbG5zOng9ImFkb2JlOm5zOm1ldGEvIiB4OnhtcHRrPSJYTVAgQ29yZSA1LjQuMCI+CiAgIDxyZGY6UkRGIHhtbG5zOnJkZj0iaHR0cDovL3d3dy53My5vcmcvMTk5OS8wMi8yMi1yZGYtc3ludGF4LW5zIyI+CiAgICAgIDxyZGY6RGVzY3JpcHRpb24gcmRmOmFib3V0PSIiCiAgICAgICAgICAgIHhtbG5zOmV4aWY9Imh0dHA6Ly9ucy5hZG9iZS5jb20vZXhpZi8xLjAvIj4KICAgICAgICAgPGV4aWY6UGl4ZWxYRGltZW5zaW9uPjYxODwvZXhpZjpQaXhlbFhEaW1lbnNpb24+CiAgICAgICAgIDxleGlmOlVzZXJDb21tZW50PlNjcmVlbnNob3Q8L2V4aWY6VXNlckNvbW1lbnQ+CiAgICAgICAgIDxleGlmOlBpeGVsWURpbWVuc2lvbj4xMzg8L2V4aWY6UGl4ZWxZRGltZW5zaW9uPgogICAgICA8L3JkZjpEZXNjcmlwdGlvbj4KICAgPC9yZGY6UkRGPgo8L3g6eG1wbWV0YT4KPGqMWgAAABxpRE9UAAAAAgAAAAAAAABFAAAAKAAAAEUAAABFAAAZr0uauH0AABl7SURBVHgB7J0J8E7VG8ePrcVaspUlsoVKCJU1ShmkRonIZI3IlqWyq2kZhLTINpZqKLKEyJqlQsgyyJpCiIgoVOd/vmfmuf9z73t/rzf0c9/6npk7997znHPuuZ+r9/ftOcuTRpukUkhp0qRJwcJsEiABEiABEiABEiCBeAT69++v+vXrF6/IeW1pzifUGjVqpIoVK3behliABEiABEiABEiABEhAqRMnTqhhw4apVBFqs2bNUvXq1SN3EiABEiABEiABEiCBBAj88MMPqkCBAhRqCbBiERIgARIgARIgARJIVQIUaqmKmw8jARIgARIgARIggcQJUKglzoolSYAESIAESIAESCBVCVCopSpuPowESIAESIAESIAEEidAoZY4K5YkARIgARIgARIggVQlQKGWqrj5MBIgARIgARIgARJInACFWuKsWJIESIAESIAESIAEUpUAhVqq4ubDSIAESIAESIAESCBxAhRqibNiSRIgARIgARIgARJIVQIUaqmKmw8jARIgARIgARIggcQJUKglzoolSYAEEiCwd+9eNXv2bHXllVeqVq1aJVAjOYr88ssvavz48Wrbtm3q7NmzauzYscnRcfaSBEggqQlQqCX152PnSSB6BIYOHaq6du2q8uXLp/ADcynSb7/9pubMmWObuu+++1S2bNkuRbMJt/HTTz+p22+/XR04cMDWKVu2rFq7dm3C9VmQBEiABC6UAIXahZJjPRIggVACjRs3VpMnT1YNGjRQU6dODS3zdzMXL16satasqdKkSaOOHj2qrr322r/bxEWV79+/vxowYIDKlCmTeuKJJ1TdunVVnTp1LqpNViYBEiCBRAhQqCVCiWVIgAQSJoAhQgwNXn311Spz5swJ14tX8NVXX1XPP/+8KlasmPr222/jFf1HbDfddJPas2eP6tOnjxo4cOA/8gw2SgIkQAJhBCjUwqgwjwRI4JIT+Ouvv9Tvv/+u0qVLZ+ev4QFHjhxR33zzjbrqqqvUnXfeqdKnT+977h9//GFFH7x0s2bNUo8++qidJwYRCO9aWDp27JjauHGjHR4tXbp0iuW01gpDqmnTprXPP3funO3LiRMnrPdO2j58+LDKnTu3vV2xYoWqVKmSmGLOEHO7du1SJ0+eVLfddpsqXLhwTJmwDAyprl+/Xp06dUpBFJYpU8ZyCisreeC5fft2O7xcrlw5lT17djHxTAIk8C8icCmFmjI/fCkmw0ybH9oU7TSQAAkkPwGziEAbIaYzZsyojVfN90Kw4Xfgxhtv1KtXr9a33nqrvUcejhw5cuhly5b56pjhRl8ZKTt//nxfOdwsWrRIlypVylfeiBfdq1evmLLIwLPQHsqsXLlSFy1a1N6buWi2vBFC+rrrrtNGyPnazJMnT0x7M2bM0EZc+cqh7ZIlS+rRo0fHlJcMIyh1+fLlY+qBzZYtW6SY72yEpG7fvr1lLDzQRyPWtFno4CvLGxIggeQn8P3339vfCDMF46JfhkLtohGyARKIJoHjx4/HdMwMccbk9e3b1/6gQGgEkxk29ASJ8ZzpDBkyaOPx0jfccIOXH6zXsWNHK+xEkBQpUkSXKFFCHzx40Nd8p06dvDbMIgZtvF46S5YsXh6eHUyDBw+2dvTFDNF6Zdu0aWOL7t+/3z4ra9as1ob28OymTZv6mhozZow23j1bBv17+OGH7XuJwMM5TEBNmjTJMsC7mRWyumrVqraevOu9997rew5uNmzYoPPnz2+fdcUVV1iRV7x4ca/vefPm1WbVbUw9sxhCQ3i66dChQ+4tr0mABCJKgEItoh+G3SKBKBD4888/tVnFqStUqOB1xwzT6QcffFAPGTLEy5OL+++/34qGli1bSpZ3FhuEiFkYoLdu3erZzOR8W88MgXp5cjFt2jRrg5g5c+aMZHvnESNGWDsE16hRozxBAo9elSpVrO2aa67xysuFGUa1NvTHDFHqjz76SJshBv3rr79KEXuuVauWLWdWsvrycQMBC48c2ujWrZsGL0nw0onoWr58uWTbMwSXGb619nr16mkz5OnZW7RoYfMhZN1khnRtP9Em3ssMs3pmsyLW8/wNGzbMy5eLnj176mbNmmkzlCxZVvDBy8lEAiQQbQIUatH+PuwdCVw2Ajt27NCVK1e2ogHiAQleILPi0uYFxQfsIlreffdd3PqS2CD6gsOiL774om0Tw5/B1KNHD2urWLFi0KQ3bdrkeaW6dOkSY8cQqYgleMjchCFY2OBN+/HHH12Tdw0vlLyvWcnq5csFGMArWL16dW3m30m2PcOzJc/evHmzz4YhUdjuuuuuGPGJYVSp5wqrRo0aef3dt2+frz3coC3Ua926dYytRo0a1la/fn3bz927d9t7iNv3338/pjwzSIAEokOAQi0634I9IYHIEJg5c6Y3Bwp/3CFkRChg/hm8Nq73CB2HsBOBYRYI+N7FtS1cuNBnw03nzp1tXYiNYIIIQrvPPPNM0KQxNAobhiXNxHo7JIphUTlkXhzK7Ny506sPu/TVrCj18oMXaFPKuR6sYDncw9uHZ2Cu3DvvvKPNClVbF0LQZfXll196bX744YcxTZkFDhpz11xxh2FKiCr0pXv37t77yXviXK1aNWsPDs3iAWabFI2hUtQ326ZYoSweRQzbcv5wzGdgBglEhgCFWmQ+BTtCAtEhgD/m+KM+ceJE26mff/7ZzsPCHCxX8Lg9hmcGdSDkXE8Qyrz33nvWBkEVNnwpnrugGIPAkfljaMNNZpWmzpUrl20Xz413YJ7Y6dOnveqffPKJLY+hVgijlBI8iGg3Z86coUXwLm+99ZY2G+B6QirYDwgoN4m4hPcwjIVbVq6HDx8e9/3cZ5ptTKSa7yzvAuGNhG8kQ8Pw4jGRAAlEkwCFWjS/C3tFApeVQKFChawwwFw0CBl4iSAG4NUR8RbsoAgQiK5gElvYBHkILog7tB8UYxjaFBECr5ybMEFfbBBKGN5L6WjSpIlbVffu3dvWNVuC+PKDNxCOeIbZ3DZosvPT3JWeWHSAuXdYjACPGkQt6mLo1k1YVYp8rNxMNIk3E3PtUnpHyf/ss89imp0+fbonauFBxJy4Dh06WPENj1pKQ78xDTGDBEgg1QlQqKU6cj6QBKJPAENh8DZBUDRv3lxDTGFIDff4w/7555/HvARED+xhk+7FFrZVBoZJUQ8HhhrdhBWVyMf8tmBatWqVVw9Df38nyQIBCMh4CfPi8HxsExJMTz75pPf8CRMmWEZSBh5IWSyAYUc3FSxY0NZ7/fXX3Wx7DQH1xhtvaHjQ0Iak2rVr2zpt27aVrITPZoNeWxeLE3CNZ4iIxCKKsG+ZcOMsSAIk8I8ToFD7xxHzASSQnASWLFli5349++yz9gUwsV48TO78KRixOECE3ZQpU3wvDBtWbELwYO5bMGHhAWyYtB9M8E7B9sADDwRN2l0oELbn2IIFC+ywKYZO3RWm7gKBoAfPfQiGJaXf8+bNc012GFWEWJjYc/d/w4+sm2RRBeaaBRO8bHhfbLPhLk6QhQINGzYMVrFDmCb+qfVKYmVnMMGDB88fVpoiff3111Zs41u6q02D9XhPAiQQDQIUatH4DuwFCUSSwJo1a2I8Ltiuw50cj47jjz8EBo7gpHu0IbawITZs5QE7tu8IJuyHBlurVq2CJjuhXibYt2vXzmdfunSpN9QX3CrEXSAQ9OC5jWBTXum3iS/qmuyzxYYVq5Iw76tfv35201/YwzbHxTAqbAUKFNAm6oGtClGGjXGlzTfffFOatGcRyCYYvTYhtDybiYCghR+Ectj7YPsSd5UtvhW9aB5CXpBA5AlQqEX+E7GDJBB9AphQD5ERNulebBAmYUkiFIRtSos5X2gXni0TkilmLpUsekAZ7MxvAqbbzW5F8GBOnOuZwvNlUj08eMFNYN3+QSyhHQwTBhP2WpONcBGJAStTMZwqebKJrwniroPDlVjpKf0DL0zox9wzyYPwCvYLw8OygS7KYlNdvLsJbWXrYUXn3Llzg93kPQmQwL+AAIXav+Aj8hVI4HITwN5dEBphk+7F9sgjj8R0E8OLEDqoi5WYwST7q8EO0RNcTQqPEjaMFZEjZxMvU48cOTJGpKF9DOWiHIRVvAQvHsoFFyJInXHjxnlbXrjPxca52IIDqzqRH7ZgAXPQxBsodSHuwrY9keeBjxttAfXADv0LDkVLHZ5JgASSn8ClFGppgMP8eIQmMwHZBlU2P6qhdmaSAAmQQBgB8yOlECjdCJnQwOP42TFbhigjVmwwdBNiSZlwTOcNah72rL+bh76ZoV0b2N0IMnX99dd7TZgQWzY4/M0336yM58zLlwsEhF+3bp0yiwZsIHaz75oyE/7FHHpGsHfUwXONcFUIxm427g0ty0wSIIF/B4FLGZSdQu3f8W+Cb0ECJEACJEACJBARAhRqEfkQ7AYJkAAJkAAJkAAJBAlQqAWJ8J4ESIAESIAESIAEIkKAQi0iH4LdIAESIAESIAESIIEgAQq1IBHekwAJkAAJkAAJkEBECFCoReRDsBskQAIkQAIkQAIkECRAoRYkwnsSIAESIAESIAESiAgBCrWIfAh2gwSSkYDZ2NXu64U9vUyQct8rbNq0SS1btsyXJzcmTqYyMSiViUoQd+8w1Ec7YQl7M5roAqpGjRrK7NAfVkTt27dPmfiioTZkog2z078ysTRVoUKFUiwXZQPeD++JdyhbtmyUu8q+kQAJXACBSynUVLz9f03f9KxZs+IVoY0ESCDJCCCUEf7bLl68eEzPO3ToYG2wp3QgPiXiWAZDJkljCAGVUl3JN2LLhmkKa+Ptt98+b31pB4HPDx06JI9OmrPZ4Ne+I97VTYixiigJX3zxhZvNaxIggSQjwMgE5leaiQRI4MII5MuXT+3fv1+ZGJtq4sSJvkYqVKhgd+3Hbv0mTqdnM3EyrZcM0QYkwRs3duxYu8O/5JnfUusxww7/pUuXVti5XxLyduzYofbu3auMQLPZJoamevTRR6WIPaPdCRMmKBOD03qcXCPahyfKBDlXJsi8NZnA8GrevHlusUhfmyD3NmIDOmmCrdtIBdJhRGdYvny56ty5sxo6dKhk80wCJJBkBOhRSzJlze6SQFQIGJHjeatGjBjh6xYCoSNQuPk91GHB1uH9MiJCZ8+e3Wtj8eLFvja2bt3q2cLigKLwnDlzvDKDBg3y1cdNiRIlrL1hw4YxNskwQlMbwWnLmSFZfe7cOTFF/jxjxgzbb3gmz5496/UXMVEzZsxobR988IGXzwsSIIHkI3ApPWoc+ky+788ek8AFE/j444+tEIAYW716ta+dr776yrPNnj3bZ3Nvli5d6pVDsHQ3GU+YZ4s3JCmCsGfPnm51bbxuGsOi6N/gwYN9tuCNBI5PmzZtXKFm4nJq9Hn9+vUpDte6bR87dswGaDfePj1//nxtvImu2bs2Hj196tQpe3iZzgWEL+zBoPQvvPCCfT8M20o6ffq0dvlv3LhRnzlzRsw8kwAJJBkBCrUk+2DsLglEhQCEEUTQlVdeGSME3njjDU9kHT58OMUuw3sFLxbaqVSpkq9c+/btbb4JOu7Ld2/MYgNbBoJs7dq1rkkvXLjQ6wPKxUs1a9a0ZStWrBhabNGiRbpUqVJee+gvvIG9evUKLQ+RiDl68HShrBwQlS+99FJMncmTJ9syYBkUYyhcsmRJax82bJivrvTbDG/afAgytCHPk7Mr5HwN8IYESCDyBCjUIv+J2EESiCaBe+65xwoCMxctpoNNmza1toIFC8bYghlmpaIt+8ADD/hMd9xxh8038858+XKza9cufcstt9gyzZo1k2zv/PLLL1tbunTpUvRkofC6des0PGkQNdOmTfPqy0WnTp2sDXYMkUJQZsmSxcsLDu3CawZhhPIQZihfv359nSdPHq9OcIJ/165dra18+fLyWO8M0Sf9W7JkiZeP4eNs2bLZejK8aebb2eFeGfaEHcO/wT56jfCCBEgg8gQo1CL/idhBEogeAQzViVjBqs1gKlq0qBUQ8eaGSR0pC3EnyZ3jBjHWrl0772jUqJE223roDBky2GdUrlxZHzhwQKp654ceesjaUR+eO/cwCxn0ggULdN++fXWOHDlsOQgqvJebMPcOgit9+vR61KhR3nAn5oNVqVLF2sz2Hm4V/frrr3v53333nWc7fvy4NxfOLLzw8nGBZ+M58MIFE7x5sEGsnTx50jNv2bLF5sO2c+dOLx8X4IP8/v37+/J5QwIkkHwEKNSS75uxxyRw2Qls3rzZEwmTJk3y9QfzuGRu2JAhQ3y24A2EkQwPdunSxTOb/dm89iE44h0YDgzbmsOsNo1bz20TQ4fBeVxm/zZPDLp9k05izpm0gQUJksSbhq1Lggl9bdWqlTYrSz2TO/wbFHAoJJ5BCE43jR8/3j7/uuuuc7OtmBMP3Keffuqz8YYESCD5CFCoJd83Y49J4LITGDdunCdStm/f7uuPK2CwsjNeWrlypdcOVjBKGj58uM3HsCXEHrxUcvTr10/DU5crVy6vbnDFp1nO7tlETMU7w5sX9KZ17NjRtgHPId7x4MGDvgOLJKRN16Ml3jHYMOSJ4VSI15QShl6lnW3btsUUE89gixYtfLann37a1qtdu7Yv312gcfToUZ+NNyRAAslHgEIt+b4Ze0wCl51A27ZtrUgwkQFivFkDBw60NogsrFSMl2RTXCwowGpFSU2aNLFtmP3XJCvmbPZQ03nz5rXlMM/NTVOnTrX5EECYDwahJAfEC+ZyQRjKthwo54oaeLlcIShCKuwM75Xbd2zsjXd3y+LeRFDQo0ePjllVOnLkSFsWQ6jxPIMo56Zy5crZehCubnrttddsfpEiRdxsXpMACSQpAQq1JP1w7DYJXE4CZcqUsWKgVq1aMd2oW7eutZlNamNsbga8RzLPrE2bNq5JQ2RA6GCYMF6qU6eOLRdc0NCjRw+bnzlz5hhPmduezEHDsyD8JKFvIrQgAiGyUjogKoMJ9bEqNrhSFG0GtxFp3ry5fdZ9990XbMaKTOkHtgSR9Ntvv3ns5s6dK9n23KBBA9teWL98BXlDAiSQFAQo1JLiM7GTJBAdAvAeYXI9BETYakLxRAXFV/ANMGSHNrBC0V0MAM+WiBN4oFJKmFgvCwGCK0OrV69u26hWrVpK1W2+K9Sw55mkVatWeX3AkOfFJMxfQ3gnWaFpYpz6mhMx17t3b18+bmR4M7gRrzuH78iRI7564iXE8DETCZBA8hOgUEv+b8g3IIFUJbBixQpPxAQjBuzZs8ezjRkzJrRf2FdNvD4QZMEFB5hoL0Jtw4YNoW0g87nnnvPKIUKBJMw1gycNbXTv3l2yQ8+yVxvEjZvceXZYXRlMWDGKZ+BABAUknCE6cYSJO4hJ9Alz2NyE4WPkB0Up5tlJ5IZgHSxKQJ3ChQu7TVnBi3wc2PSWiQRIIPkJUKgl/zfkG5BAqhKQ7ScgBoIRA6ZMmWJFAmwzZ87Uu3fvtgcm20PgvfPOOzpnzpxeGROLM6bvAwYMsHbM/cIkfmkDZ6zERKBxGV7Fc4JDfCiDfBwoGy9hOBPlEPzdTRBa4jXE1iBuwmR98Rq2bNnSM8FzJs+dPn26l48LeMAkgkIw3BbmpqGe+xwTx9Qb/oUtuOr08ccft3UaN27sew4EpPQBIb6YSIAEkp8AhVryf0O+AQmkKgHsYwYxELaZrWzcKmIhpTNEGPb4Cq60xIvIvLOU6ko+Juh369ZNY76Wm0xwd0+suPPO3DJynT9/fls2KNRgd71+mLhvAs97+52hD6iD/d7cJHP3IMoee+wxjW0/MPwqW5BgSDbYX1kQgTYRgUD2lXMjDCBygZvgSUN5E2zdzbbxU4UP3o37qPnw8IYEkpIAhVpSfjZ2mgQuH4HixYtbkRC2ma14qEQsuGfM0cJGrBBzYcOJ8kaucHHr4xrep7vvvtsuMlizZo1U8Z1lJWnu3Ll9+WE3mTJlsu+Cfd+CW2hgDly9evWs3e3HTTfdpLECMyjS0P4SEzlAAsG7dSC6MMyKjXaDCatEs2bN6nsOBB/2QJP90OBNlIQ2pO1ghAN49QoUKODZX3nlFanGMwmQQJISuJRCLQ0YmB+Q0GR+CJX5QVLmhy/UzkwSIAESiBoB/KSZYVtlNvhVRrgp46VSVatWVcabl2JXjZdQmTlzygw92nKFChVSZgWsMsIxxTpms11l9pRTRvwp4y1TRgynWPZ8BuOxUya8ljILEJTxesbt6/naop0ESODyEzDzVZX5HzBlPOTKbMdzUR2iULsofKxMAiRAAiRAAiRAAn4CFGp+HrwjARIgARIgARIggcgQoFCLzKdgR0iABEiABEiABEjAT4BCzc+DdyRAAiRAAiRAAiQQGQIUapH5FOwICZAACZAACZAACfgJUKj5efCOBEiABEiABEiABCJDgEItMp+CHSEBEiABEiABEiABP4FUFWomPp0yu3T7e8A7EiABEiABEiABEiCBUAImpJ2qXbu2MpFY1KBBg0LLJJp53n3UEm2I5UiABEiABEiABEiABP5PwISgUyb6yf8zLuDqvELtqaeeUiaEzAU0zSokQAIkQAIkQAIk8N8jcOzYMdWnTx/VunVrNWrUqIsCcF6hxhBSF8WXlUmABEiABEiABP5jBFJ1jhqF2n/sXxdflwRIgARIgARI4KIIUKhdFD5WJgESIAESIAESIIF/jsClFGr/AwAA//+pzSYdAAAooUlEQVTtnQn8Z1P5x8+QkjWRrQxKCWUvKQxlTUOSJdso+4RsmRCTtclWtkwkS7KWpexLU0ioLAnZGq2jkAYVSef/vI//c517vud+t/v9fn3nN8/zen2/996z388999znPM9znjPKC7kKGjVqlPvhD3/oxo4dW5HCgg0BQ8AQMAQMAUPAEDAEYgT++Mc/utGjR7uvfOUrbuLEiXFUx+ejjFHrGDPLYAgYAoaAIWAIGAKGQCUCA2XUJk+e7D760Y9WNsYiDAFDwBAwBAwBQ8AQMAReQ2DatGluzJgxbsKECW7SpEmvRXRx1lKi1kWZlsUQMAQMAUPAEDAEDIGZHoG1117bTZkypRYOLRm1cePGuWWWWaZWJZbZEDAEDAFDwBAwBAyBmQWB6dOnu69+9avuc5/7nDvrrLNq3XZLRs0WE9TC1zIbAoaAIWAIGAKGwEyGwEBt1IxRm8l6l92uIWAIGAKGgCFgCNRCwBi1WvBZZkPAEDAEDAFDwBAwBPqHgDFq/cPWSjYEDAFDwBAwBAwBQ6AWAsao1YLPMhsChoAhYAgYAoaAIdA/BIxR6x+2VrIhYAgYAoaAIWAIGAK1EDBGrRZ89TK/+OKLpaW2OANu5b7k8ssvd3/5y19CxUsvvbRbd9116zWij7nPPffc0NY111zTrbHGGl3XdPLJJwffMSeddFLYRqPrgmagjL3Crpe3bP01j+b48ePdrLPO6k455ZR8ghEWeumll7q//e1v4Z1eYYUV2r67f//73+4b3/hGSA9m8847b9t5LaEhMDMj0EtGzbGFVBUJyF5WfVZFj9jwX/ziF14GNn/77bc33ONtt93G3qjF7+ijj25IEwc88MADXj4IRfrPf/7zcXSt83/961+hnbT1H//4R62yyPy///3Pv+Utbwlt/d73vtd1eT/4wQ+87BPrt9tuu67L6HfGZs+4m7p7hV03dTfLY/01j84OO+wQ+vm9996bTzCCQuO++e1vf7ujO7vlllsCTm9+85v9yy+/3FFeS2wIzMwI/OEPfwjvjuz1WRsGY9QyEIo0KQC8zz77NMSeeOKJIU6ZtZ133rkhTRzwiU98opT+vPPOi6Nrnd98882hbJiiv//977XKIvNvf/vboq2PPvpoV+Xdd999fs455/SLL754T5jHrhrRRqZmz7iN7A1JeoFdQ6E9CLD+mgfxoosuCn199913zycYQaFx37z//vs7urPjjz8+4PThD3+4o3yW2BCY2REwRq2PPeC///2vn2OOOcLgdMEFFzTUtNVWWxXMDMyaqDEb0miAbBtRSkt6Bs1ekXg9DuW/5z3v6UmRMJG0cf755++qvOeee86/613vCtK0n/zkJ12VMYhMrZ5xN22oi103dbaTx/prHqWnnnoq9PV55pnHi3o4n2iEhP7nP//xovYMP6RrndCWW24ZcNp33307yWZpDYGZHoGZklFjgIHJufrqq/0ll1ziH3roobY7AtImGId77rknqPeqMqJKvOOOO8LABMPy61//2r/00kul5EsuuWSIHz16dDjCmOSI9q666qohzdxzzx2OqBWbDZS/+93v/I033ugvu+wy/9hjj+WKDWGoIP75z3/6TTbZJJS7xRZbhOuqsv/85z/7q666yl988cUelR+MSo5Qy3LfG264YYh+5ZVX/C9/+UsvNnaeMlrRjjvuGPLLlhkNSSmLNovNSxHHx/Kmm27yL7zwQhHGCe3jWcHoPv/886W4qot2sWvnGcd1DAq7uM5enlt/rUYTqS/9HfXeIIk+yLuQji3aBvo/8aSrIn13mEwyTvVCLUl9d955p//rX/9aVKsYXXjhhUWYnRgChkBrBGYIRo0Xe6211vKHHHJI6ztqkeLaa6/1YgAbBlUGVv2JEb///e9/X5kb1eByyy1XpCffW9/61mybGDTf9KY3ldKSfvXVVy/KZ1aqdaMW5Xy22WbzMCEpYeNF/Nve9ja/8cYbh/P11lsvTRaur7jiCr/SSisVZWsdyy67rD/zzDMb8hx++OENaclz/fXXl9IygH/gAx9oSPv+97/fP/jgg6W0XGhaZs/Y8IjhcJG3lc2ZqmHnmmsu//TTTzeUDaNIG2Fab7jhBv/BD37QzzLLLCEM+xeYPD5Q9BeVaJIe+z4kh1XUCXbtPGOtZ5DYaZ1Vx0996lP+He94hx8zZkxVkmy49dfmNpIbbLBB6H+oh7sh7P94LvyuvPLKtovgHaFv77TTTtk8e+65Z4hfYIEFShMbEjNZZVwlf/xj4sgkM0e8a7xHRx55ZC7aY6e32mqr+Te84Q2hTN51xttrrrmmqOPxxx/P5rVAQ8AQyCMwQzBq22yzTXjJ99tvv/xdtBmK9EyN8RkQP/nJT/qPfOQjxQCy/vrrZ0v6whe+UKQhH3lUssUAd+ihh5byPfzwwx7GT5kEmBSu43TKbJA/NtLmgcSEKmWJJZYI9Z966qnFeY5pxbiXgZEyl1pqKb/ZZpuFQVKZGI6punTvvff2OtPVfLT1ySefLJrx3e9+NzCRxMOAMrjHzG6qsqXNb3zjGwvMyLfYYosFhkoxIQzpWo7041G1gAAcyc+P5wlz9u53vzvYs2k40kk9n2+++Ypz0qcY04ZOsWvnGVPuoLGjzipiEqAf9q233roqWTbc+mt1fwUwxhL6W+69zAKaBH7ta18r+mj6jiZJS5crrrhiyJebuNFHlWH61re+VcqHXZ1OJmHikHwjtdfxkff3T3/6UykP7zWTSe6TRT4pobKfffbZQzz1vvOd7/Txu0c+6jIyBAyBzhCYIRg1/eiibuuWGGQWXHDBMIikNhJq5MrAkpIsuS8GnjPOOKNQN2KroUbkqCFzhLSJwSm3UuOwww4LcYsssoinLB0gf/rTn5aK0rZhO6YPizLTFbSs1ETCR9wBBxxQksz97Gc/C+HE3XrrraXyuWDQJY6BO1WhYNAPI0T82LFjgxpFC0AtSTiDd0yxyhe7nXhQZ+WqMo5HHXVUnC2co1amTH7MwnOk0gvSfOYznymkbnfffXeRl7gvfvGLHjUmNHny5CLukUceKRVbB7tmz3jQ2JVuKnPBhxdDbn4wkJ2Q9Vfnc/1VMVT7q25XYiPZ5rmIi55ijNGymx1huOnr4qqnIZkyjyuvvHJpPPjNb35TTCLHjRtXkrQhSdfJHs88pp///OfFOyTuAuIoT1/XyRn1IoGFGNuYMNJGfh//+MdL+ezCEDAEWiOg3/4cL9E6dzlFX1Z9ovrSl/yJJ54o19jB1Y9+9KOiHAaVmPiYs+JSfPvEwZ5VTTqDTJk7EjKoadtSuyvsoZQhQd2akjIbDGqQ2qmJ/6wi6TPPPFPMSLE1QyWi9cUSLzLAgCHlWnvttRsMmlHpaj4G6ZQOPPDAEI/KIiVUpuRFbZsycagKtdzYVk38nhXh4B4Ttm/6ITj99NPjqHCutmnMvKtsZZQhRbIZp+Hjoe1JV9BiL6NxqYq7W+xaPeNBY9cAZg8DrL86n+uvCjHvHf1rt91206CBHBm4qRdJdUxM+AjnXUtdA+nkgvEiR6pl2HTTTUvR4scwlMnkMiYktVom0vDUfIPJmb57MKRGhoAh0BkCQ8+oYfDPS77QQgt1dmdJ6phRW3TRRf0RRxzRckEAakHqRs2JFAbmKP7F6qDUYD+WDMFwpaTMxjHHHBOisBmirphjRtVLGAMnhFqFa5i6ZgRDRXuw9eLjgjSOfKi90kGUcvQjs9dee5WKjWfQqI1Twpgf+6uU+dt2221DfahlUoptnVI7OJg4njNtTZlmLQdXH8TzS5lAGC6NS31aqQsFJJcYV1dRJ9g1e8aDxq7qfnoVbv210W4zxhbVPn2vlS/EOE8vzrVfU7fac/IeqY0o9qExxf3y/PPPj6OKc3FOHe4FaVtM+l7r5FLj1KaUNuTUtkzidHKWm7RqOXY0BAyBPAJDxajxEvNBiH/40WIA4EWPwznvxHCXVUhIjCgr/sG0oa5IDeKR1KiqNE6fO0dylq6qUpsTbMVSipkNVipCKkniCCHlU1UCgyuELRj1szIzJRiM0047zaPmULuUtK05A/LYbikduJVRRbqVStPS+uNr7MWoW5nQOC42Kk4Z2Fjqhd1ejmgjZaNSTdt0wgknhDjsCFNSpnf55ZdPo0I53WDX7BkPGruGm+phgPXXV8eMtL8qxExYlBGp49xZy+vkiHZA33NU/5AuPmKCOW3atFJxuriAyV4sjY4TMYZQZmoTXPVeI70mPYuYciQ7qRRtrMIwl8/CDAFD4FUEhopRUzsYHXhaHatsmKoeLgMTH3pE+vFiAOrB6JUBRYmZodbPwIXtSNWPmWZKm2++ecifi1Nmg8F9+vTpIauuvlRmSm1PPv3pT4d4Zsnq6f+4444rVYeNVbzSEybmYx/7mN91112DRA1mkXtBxZkS6l29z9QxrRoqd2J3g/sS/WilKhfqVlVNjoFVlSk2cdxvjpQByi38UD9fYJ+SqnN22WWXUlQd7Jo940FjV7qpHl9Yf311cU4VrLFEadArGpkgqokFphHY4i7+/65CsG9NSceJiRMnplHhmnFP31+kdUowWDpO6ORS43Q1fNVCCvULmHvntQw7GgKGQDUCQ8WooVZkhqg/1Fe6MgnXEhquRwalbgmmDdWV+g9jEMLmSimW7qT2YJqm2RGpDmVi15GSMhusrlTCNo30DLJ33XVXGCyxj1OVasw4pgsOVBpHfsqJZ8owTroY4Pvf/75WVxxZ7Ug+JJQp6WrTnOQS9SGMFfcX72Rw3XXXhfKQ6sV+zrRsjImpj5W8KSkuDPxV9KEPfSjk//KXv9yQRP18IemKCTwUg9RFSR3smj3jQWMX32+vz/W5WH/NI6s2njE++ZT9CdV+z8InlfK+973vDYb8aY2aNn0PNJ36P0STEZsI6HsdTy41D1oJ3mlWpeeIRUhV73wuvYUZAoZAGYGhYtTKTfOe2SkvOL+YGUjTtbpm8MHYNrXBIh/ObrUOHMQqxQsFUrUoaUiLzRe/1GFuLOrP+SNSZiO2AdF98LChYvUXbeIDqaSMHPGxU1dm1MqExOk1n0rqKI+HnRJSN+LUMW0cD/NGHKsnU9IB/e1vf3tp8QK2f+RBCpkj1KjEy+bMDdEYYhOXGjFrQlaQKeOernqNbd9gwGPC4S3l8oPJV6qDXatnPGjs9J76cbT+mu+vijXqdPpW7j3RNP08brTRRqH+z372s4W/wtT+U+tXdxm5iQ7SZXXfki6K0Pc6x4yqy539999fqymOSN9UQpd754uEdmIIGAKVCAw1o4ajWwZAbCPqkG6ajIFtbNeEeg2mgDoWXnjh0gwUKZraeu2xxx6l6mEE1H4t52gSJo4y+aW+iKhfmQ3sopTiFYvkw/eaGgeTRhmj1MaKdmpdsRNKDHhRb6jbD+4vR6oSTFdJklad62LPosvtkWIyG9c601m07kea2/cwZrzV7i5ukzr+zWFKOnZC0HpTKacu7EANlO5AoK45kBLEq1PrYNfsGdPWQWNHnc3o2GOP9aiG8QnYCVl/ffU9zvVXcNQ+Sb/LTehaYY0tKs+FX851Tqv8xLMiXd8Ljqmxf1wG5hukQbIW7xrARBizC+KQBqtJhubV9zqeXGqc+j1k0haPd5g+sEJU21aFoZZjR0PAEMgjMNSMmg5AOTuv/O3kQ/F/poPF+973vsD04ExV1VMwZOkKQkpSGyTyrrLKKn777bcvOcjFuD+nfo1XH7IaLF7JqQM7ZbKlkhJG/bp4gLhJkyZpVDjqKq7UxgrpGjZp5IEpYwUn9lsapmoJmJQc84QtG3lhHmECY+NjVnoSx49dEfAbp3ZyhMFQpbZkysB+5zvfKbWfC2W8Uenm1KIHHXRQqAuccwRjS725Va9q38jzTUn9vdH+mOpg1+wZU8egsYvvK3eufX2dddbJRVeGWX991U9grr8CGuMIfRJGqxs655xzQn7KSE0a2i0PZ7bk54fDWfUdmMt/9tlnF2lhorCFRTXJnrzkRxKcsy3V9zqeXGr58cQNiTmTFPoZ46qOabzzubFSy7CjIWAIVCMw1IwaLzuDB7ZQdQgVF6udVEKmgxpHPuzYX+QIyYzaV8R5cIyLlKZq4MGnGsyE5om3LdJBjQEVVV5MuqqKvPGHASZOpXA52xKYIh0QtU7aeOmll3pmsapuRIWVElI4zZNKnEiLDVqKG8wfaozU1Qf3rWWlLjsoa8KECSEepjdHMKfkZ5ujHMGkEq8LLOI0amuY2xtUV7HlVDPdYtfsGWu7Bomd1pk7otLS58Iz6ISsv746ScthhoQYBoQJUq6/5/KkYToZTU0a0nTNrtVnGs84dVKby4cLEVVHar/gyFgXT9Q0b/xew7jnCLVvXBbnTGRxrMw5ux4YGQKGQHcI9JJRG0UT5KXMkgwMTuyKnAwG2fhBBIphvhO3D07E+k5UgU52PHDCNDjaVkXcEvlkIHbCuDmRkDkR9TsZWKuyhHBhtJwM5E7sx5xIM1qmb1pYG5HyIJ0Mok5UME4YMiez5SIX9yv+zpwYGDuRjBXhekLe5557zgkD5mRGrcHFkXuRpf9O1CNOGEAnftmcfKCK+F6dyOo5J4O7Ey/rThZP9KrYluV0i107z3hQ2LW8ySFL0C3m3Maw9FdZGOPEpZCTLc2c2HANGcLNmyNqz/BOi8lFeN/EYW323W9eSjlWHEmHMhmDZE/Q0hhUTmlXhoAh0AkCvKciwHGinXNi0tRJ1oa0Q8+oNbTYAoYKAVll5kTF4mBunn32WSd2ekPVPmuMIaAIiOsKJ9uXBYZEtmhzInXWKDsaAoaAIdBTBIxR6ymcVlhdBGTlmhO7HSf7gzpRgdYtzvIbAj1HQFSBDgmUmBs4sTN14qal53VYgYaAIWAIKALGqCkSdhwKBPjwycIJJwsVnPh4G4o2WSMMAUUAUwjZ99SJXZibMmWKE1c6GmVHQ8AQMAT6goAxan2B1Qqtg4D4eApqTzFQrlOM5TUEeo6ArKh04lTWrbfeek4WtfS8fCvQEDAEDIEUAWPUUkTs2hAwBAwBQ8AQMAQMgSFBwBi1IXkQ1gxDwBAwBAwBQ8AQMARSBIxRSxGxa0PAEDAEDAFDwBAwBIYEAWPUhuRBWDMMAUPAEDAEDAFDwBBIETBGLUVkwNesIsMVhewfGhzk4ohS9swLznhxVbHCCisMuEWvX3Wy0bmTvSiDbypbSDCY5yB7MzrZncE9/PDDof/hDwynxjhNZuWt7IgxmIYMuJZbbrnFff3rX3cHHHCAk/1uB1z7YKuTHUqc7NXr1lhjjY7GkxtuuMH96le/Cq5IZK/PwTbaajMEDIECgV4yak6YjkqSGr3sTFAZP9Ii2LaKLZz4sYVPjtjeif01wSb3Y5sXNmOfGUic3HrxZh72Kux2O56ZAade3SOb0++3337F1mS5/if+wfx9993XqyqHqhz2w+Sem21gPlQN7rIx7MWr+/OKu5uOStEN3I866qiO8lliQ8AQ6C0CshtLGK9kZ4LaBdvOBDLyK/34xz92suF52J7qmWeecfPNN59GheO9997rZAP1sJ0V2zrtuOOObqmllgpe+dmu6rzzznOyF2hIKxvGu5E+o91hhx2c7AvoZA/RIFUrgWUXPUVA3nQne6IGx8IUvOGGG4a+yvZhU6dOdVdffbW75557Qp1sBSQTirA1WU8bMQSFLbPMMu7RRx91bH2EFHskEpJSto6D7r//fid7G7d1m8LghTGLreWQrOGOxMgQMAReHwRMolabP80XwEbs8ki97IvZkIBZruwzGuLZiF0Gw4Y08UbLu+++e0P8SAr45je/GbBgBg82Rv1F4Nxzzw140z9PP/30hspefPFFv9FGGxVpnnzyyYY0IyEAaTUYHHPMMSPhdrL3IJM9L2rP8Ovk3XrwwQcDNkj1ZTu3bNkWaAgYAoNBoJcStRlG9cnAg9rxkksu8ddff71/4YUX2kJbNiX3YkvmRdpQyVC8/PLLXvas9JtsskkY6LbYYotwHQ+S1113XTEIiq1MZd0iaQvp9tprr8o0fFTFm78///zzw71MmzatMq1GPPXUU/6mm27yF1xwgZfN2j1trqKXXnoptB9VGSTb53jaLxx+Nssrr7ziH3roIS+zcC+SxGyaOJAPgmxcH1RwjzzySBxVnIOdbNLuRdITnhnlt0O09aqrrvIXX3yxlw3rvd5Ds7ztYkObeM6obCE+iHfddVfAtar8dvpPVd5ehov9WehX6667bmWxp512WkgDI1P1HGf0vnf22WeHe2SCMCjS8YG+U0X0KeKr3st2+2hV+bnwqVOnerFHK94RxWbppZfOJbcwQ8AQGCACMwSjduGFF/q11lrLH3LIIbWgmT59ut9zzz2DHRQfIP3Jnn2+mR3GzTff7JdbbrkiPflETZRtz+GHH15Kp3XAECpNmDAhpIERa0ZI5Zj1w6CkxCBOm2efffZSfdzLYYcdliYP1zA74Kht0uPo0aP9HXfckc2jdionnHBCwG7WWWcN+a+44opSeqSCtHWOOeYoyp9llln8KqusEpisUuLoYs011wzpv/SlL0Whr51ee+21XhZUFGVqm0Vt5UVl9VrC6AzmU7ahasgj+zN6GMMcdYoNDDZtoR/IptweySjXK664YkPxnfSfhswVAbIPqseGbMyYMRUp8sEwAYohzFgVgSHPc5999glMaJxupPQ9JmtgMc8888S31/b5bbfdFp4Bz+HKK69sK9/xxx9f4J+b7BDGxIV2kTamTvsoebH75J098sgj46LCOc/x4IMP9johpE7s2fbee2+PFJ/r7bffviGfBRgChsBgEZghGLVtttkmDBoYP3dLSM1WX331UA7MjKz08ptuuqlfeOGFQxiD0u23395QvKxCLOIZkMk399xzF2GHHnpoKQ+D3OKLL17Ei92Zh6mI1UfKqFHn+PHjvay8K5XR6uL555/3q666alHHEkss4ZGOzDvvvEUYH5GYLrroosJwfIEFFvBilxTKUMYLTNJ2IB3jI0Y748Gca1mhWRSPwfliiy0W0lEOTBIzcdLxE/ufLFMldnxFGrEVKsrTEySe2j6wx/Ab/LXc9ddfX5MWR7Fz87PNNltIIysWA2MaM3o5KVI32OgHV1ZJ+rnmmqto06677lq0hZNO+08pc8UFz0Xr3HrrrStS5YNjRo3ncs011xRSlHyOcuhI6XvcldiJFs+tSnpVvvvylWwlVeSHiWqHmOBo/4XBT0lsNUP8kksuWUhrSdNNH0Xiqe+CrCwvVYV0N36XFlxwwTBuMbnS9nE89dRTS/nswhAwBAaPwAzBqKk9FyqsbunEE08MAxAzxieeeKIohhWZMAEMSmLAX4Rzcsopp4RwPsZnnHFGoe5EzaWSIMpLiUGR8mAUUB2mhIQsHgyxA4GZgBFlIH/66afTLKVrZVyZeceSOtQXOtAeffTRRR5WUaqka9y4caUPAPmpn/akkrgHHnig1E4kLHfffbdH9aKEGlmfD5jQBiXuU9sjiwQ0uDjKYopQPrP+lPjI8PGgXfvuu28pWpkkcSNRCodhVGnE2LFjg/pIE4jxfCiLD1dM3WKDSlufIffP6l6kIbEavdv+E7cvdw5DLZuBhx+MaSeEyna11VYr2s490Ic322wzf9JJJ4XnCyNYRSOl73F/aocFBnGfrrr3NBzpOc+hE9tKGDrtN2gKYuLd0ncxllh320dVYkh9qfRuq622Cu2QRU7BNEDbgW2sjhXkQ51vZAgYAq8vAkPPqMG06MAWM1idwqbSND5IKcFE7LzzzsH2SuNkhVQxG00ZBdLA4Gi7sIWK6cADDwxxfBCr6LjjjitJ5rQsjjA3tDPnGgEpk6aV1aANxaN6I142Ni/iUPkRBjOYI51ZI2GMSe1UyCv+puKo4hyJDvFIeFKJHIkU91122aXIwwnPknz8ckwc96bxKQ64VuB5IY2Madlllw15qDNlkGNJRmyr1i02KjXlvnN2gXX6T3xP/Th//PHHS9IUxVmPiy66aGDaYJZjGil9T+8Je1O959wz1HS9PCK5UynXscceWypazQw22GCDUni3fRTGm/tbZJFFSuXpc4QpxJY0JZ2EVE000/R2bQgYAv1FYOgZNZU+LbTQQrWQUGaEgQuGBKkX4v8qQoVJWtScGLmjuox/GKnrIP/YY4+VilFJUbNFAGTA1xoMCXZzMFEqfdJy55xzzgaVIYM48TAlOYIBwr5IJQTxrJoFBzkSR5ihTKRtMe2xxx4hHMkW9n0piXNej7SR9oiD2hI+ihU2VMRvt912pexqrI5qM/eRjBk1GIcjjjii6SKO+D75EKWEyg9ckE4oxXk6wYZ702c0adIkLa50rNN/SgX18UJcN3hsD5E+Ymun96THtP+OlL6nkJ511lnhnmFI4sU+Gt+vo7jLCPXy3itpf4eJi9Wo3fZRyt12221DPamvONUGVKnNMeegDzSbaGq77WgIGAL9R2CoGDUMx/lgxD+YFQYNZn9xOOeoM9slnO2qvZN+iLhmFnvmmWeWVlgx61W1m6atOsJcwXApxfZDVR9/TZseYa74eODSQ+vbf//9i2Qss1fGqN1752NAWSwYqLLDWXnllUOa1AaQhQDknThxYtGG+ERn7NrWZseDDjoozlq4f8jZjJEQTFMVHeXDtKGCTRcFKGOE/V0qTStVHF10i41+VFnIAQOYUp3+k5Y1qGv6LUwBNnbax+jb6qx5JPU9xZQ+SZ9iIcggCWk59bIyHELCix0rYUx4Yuq2j1KGLnCJ3Y8w4Kt6tWoBBH2AtqSMetwuOzcEDIHBITBUjBo2UgwQ7f4whO6EmKliyJ+u4KQ+wpViOxKYGJi5qh+z1phQeWn7UwN5bFAYNE8++eQ4S8M56l41Fo8Hy1h9pxKzhsxJwEorrRTaU8Vsca86cGOwrAQDoioa3HHkSNWe2DhV4aPhqYoFRhucWNlaRTA8MLtIQOMFHOTDtiZe0KAqX5i4dqlbbFAr0wbcXOSoTv/JlderMBhr+h/uZZoRK3C1D6trjpHU9/TeVbI06JWNyiDS/yB82YE3KsrUp2K3fZTnps8QVzxK2FISDhNeNaHB9pM0nU40tQ47GgKGQG8RGCpGDZUS9kj6Y1UWagkGDaReGq7H1IamE2iwK8PRqq6UjN0q3HnnncUgR5s6IbZpob0wIimpE1ykhM0IBgVGhHJilyTnnHNOCKtyJzBlypRgW4RkUonVY4qfhsVHGBviaVPs24kVsITz0491nI9zdYraqUNeVM5aNh+OdghMsClS/3Tkjw2uWflKWE7SyH3BHMOoxOrubrFhtSl1IcXLUZ3+kyuvV2H6LmEf2Yx0sQaSNZUWj5S+p/eNKl8lh3UWKWl5nRzV4fD8888fGDOV3qeLmSiz2z4a+2qMzRZYFEXfRfKcI3ypEc+vyq9hLp+FGQKGQP8QGCpGLb1NjJ510Ig/sGm6Ztc4R2UVE78c06WGs9iwKcULBVIVG2luvPHGIPFC6pU6X1W1Ae4vUlLbD+5JVUppGq7VUz/p4iX8uoqQ2XA688bAXqVw8ZJ6ZfjixQVaJ23QPLvttpsGhyMG/tSPe5Eq0oUCW265ZUMS1Dmy7UzAHZcDMWGTps81J92BeeR5xdJEzQ/empfnoKQSulR1RLwyo7ijiJn7brDBlknzVUkc6vQfvZ9eH1FtKm64DKkiJKmoyUnL81MaKX1P7+eyyy4L9wiz1uxd1PS9PMaMPAuVwJrVozk7Oe1rnb6/2HRSLirVmFjAQDhS9JiBIw31q00p9RoZAobAcCAw1Iway9cZVOrYkCA5owx+l19+eQl1bHLw+0UcHyIlGDqdbWNQHxNSHZ0B77TTTnFUONdFC6xKTImdALQtpEs/EEgvWPKvy+PVhkXLwbu+5o+N2FGxKtOEq5GYGUH1SB5m5hj/K8H46qCMNCodtNUNA8cqgpGibKSSGKYr4WsLbIjDjiudmXPfeh+p2wDKUF9S+GOL1TN8SFCDkhf/d7hJUdp4441DOEwG9lQQOCCJ1bpiBpb4brDhXrS89L4oE6rTf14tofqfDy2uFZoxW7ncYKdG7PTt1DUEeWAgtB9hvxm7ZhgpfU+x0f5SZVCv6XJHJkU8A3633nprLknTsLj/05eYeGEWkaNu+ijlyN7AoZ+mC4Ri34XxBs+8K0zWtG+nK09zbbMwQ8AQGAwCQ82o6WwztQPrFBq184ApY3DF2zpMinr1Z5VmahS++eabF4MWRvXYsSgTxmCGEXzMEGmbZCP2kA810/LLL19a0YiUKXYEiw2YbJIcBlXSqg8wymeGrQyHls1R7euYEcPI6DV5kCqlEqrYxQY2MHyYWOWH2kXz5Bz9qm+0nOsMbQ+qaT4ylKO+uMCNFbqEgXfOjhDmi3h+SE1TUvUM8eCDRIxVo6rehNHAoD8mdTlAHpzzYn9Em7QeGMdUYtENNvgto0wkDml5cXu67T9xGblzxWCdddbJRTcN07YrJkw4YAQoi0UaGk7fZVFLStrXZuS+xz3BYHMP9F18BXZKqgYGL/yOdUO8i4p3Ks2Oy+umj5JfJ5Pp7hNIVlViSv34MGRxQxxGeOrIO26TnRsChsBgERhqRo0PCINGK+P7VpBhu6WrqnRw5MgHCSYgVSNSHlIhGJo4PecY2k6ePDnLpJGPrVo0D3Zfsc8u4jGA19mupouPMJVIfrDJyhH5YeriPHx0GGxzalrKwPktaeI8nHN/OdcY4KFpc0xc3C4YptTQH2kMzHXsCiPOw7kyybjMSAnJIqvdVKqpbeEI41a1uAEbtDQPDAjMJh+oHHWKDatwaUduV4S4/G77T1xGeh5LYuLFL2m6ZtfYR8UMbIwtanAcA+eeCWWOlL6n0t5upGngoBNI+nns4Ji4dknHNiZXrRxcd9pHYy0CktCUWOyiTr71+TNWocrXfWBxP2RkCBgCw4FALxm1UdySvPhZEkbBiYsMJ8xBNr7fgfKhduKTzYlTVicDrBNVoBPfZU6kP5VVczviI80Jw+Hkw+tkmyQne2WG/JWZJEJAdcLsOGESnAzE2aTi78zJB9HJ7N6JqtPJjNaJW47wy2ZIAskviyqcSMZCHplBJynKl6L2dKJecaJqdCLVc+JEs7Jt5Zytr8CGsrlvGfCdSCCdOIRtmlEkXk62uXKignPywcymBXvSiFrWiarTiZQvlE1fqiKRjIa2iGrXCVMdsBHJZVXyEN4vbLrtP00b24NIWVwR+jT9T5i/0E/pf7LCOTy/VlXMyH1P9rR1Iq12Ykwf3j/61YxAve6jog1wotp2wtQ5MS1xMvlzIgGfEaCwNhoCMx0CfLcZo8VcwU2cOLHW/Q81o1brzixzzxGgw4k9nhPfbU6crva8fCvQEEgREJtGJ+YCgUETH2JObEDTJHZtCBgChsDQIWCM2tA9kpmjQVOnTnWyotSJ3VP4cM4cd213+XoiIOpiJ4sx3MEHH+xEnfh6NsXqNgQMAUOgbQQGyqih2hP7mLYbZwlHNgKofVG9iQ87U7uM7Ef9ut8d6nlx7RLGH8YhI0PAEDAEZhQE0AbI4r3+qz6xgTAyBGIEZNGAe/bZZ4O9kCzsiKPs3BDoKQLitNnJauNg6yirPXtathVmCBgChsAgEBg/frwTB/O1qmpqo1arZMtsCBgChoAhYAgYAoaAIVALAWPUasFnmQ0BQ8AQMAQMAUPAEOgfAsao9Q9bK9kQMAQMAUPAEDAEDIFaCBijVgs+y2wIGAKGgCFgCBgChkD/EDBGrX/YWsmGgCFgCBgChoAhYAjUQsAYtVrwWWZDwBAwBAwBQ8AQMAT6h4Axav3D1ko2BAwBQ8AQMAQMAUOgFgLGqNWCzzIbAoaAIWAIGAKGgCHQPwSMUesftlayIWAIGAKGgCFgCBgCtRAwRq0WfJbZEDAEDAFDwBAwBAyB/iHwf1VnZnGjgQ4bAAAAAElFTkSuQmCC;" parent="1" vertex="1">
          <mxGeometry x="537" y="47.7" width="261.51" height="58.4" as="geometry" />
        </mxCell>
        <mxCell id="28LgO0DFCYYeMGnvJ6AU-6" value="" style="shape=image;verticalLabelPosition=bottom;labelBackgroundColor=#ffffff;verticalAlign=top;aspect=fixed;imageAspect=0;image=data:image/png,iVBORw0KGgoAAAANSUhEUgAAAeAAAACKCAYAAAByzJkdAAABVWlDQ1BJQ0MgUHJvZmlsZQAAKJFjYGBSSSwoyGFhYGDIzSspCnJ3UoiIjFJgv8/AxcDHwMvAwWCRmFxc4BgQ4ANUwgCjUcG3awyMIPqyLsisYEe+lb/O3vwdfqakrff9YXtM9SiAKyW1OBlI/wHi8uSCohIGBkYgZlAuLykAsWcA2SJFQEcB2WtA7HQI+wCInQRhXwGrCQlyBrJfANkCyRmJKUD2DyBbJwlJPB2JDbUXBGSDfQNCXBWCAhRMjA11jXSNDAzMFVycPRU0Aow1CbifZFCSWgHyH4NzfkFlUWZ6RomCIzDUUhU885L1dBSMDAxNGRhAcQBR/ZQFErZfQhFiNaUMDFYc////P40QCwL6aesNBgZuQYSYeiXQm0D2iYCCxKJEuAOYZs4qTjM2ArMZhZ4xMHC+////Wx8DA58VMC5P/P//J+T//39A8xijGRju3AcAUsdo4oKsoIsAAACKZVhJZk1NACoAAAAIAAQBGgAFAAAAAQAAAD4BGwAFAAAAAQAAAEYBKAADAAAAAQACAACHaQAEAAAAAQAAAE4AAAAAAAAAkAAAAAEAAACQAAAAAQADkoYABwAAABIAAAB4oAIABAAAAAEAAAHgoAMABAAAAAEAAACKAAAAAEFTQ0lJAAAAU2NyZWVuc2hvdMeIGegAAAAJcEhZcwAAFiUAABYlAUlSJPAAAAHWaVRYdFhNTDpjb20uYWRvYmUueG1wAAAAAAA8eDp4bXBtZXRhIHhtbG5zOng9ImFkb2JlOm5zOm1ldGEvIiB4OnhtcHRrPSJYTVAgQ29yZSA1LjQuMCI+CiAgIDxyZGY6UkRGIHhtbG5zOnJkZj0iaHR0cDovL3d3dy53My5vcmcvMTk5OS8wMi8yMi1yZGYtc3ludGF4LW5zIyI+CiAgICAgIDxyZGY6RGVzY3JpcHRpb24gcmRmOmFib3V0PSIiCiAgICAgICAgICAgIHhtbG5zOmV4aWY9Imh0dHA6Ly9ucy5hZG9iZS5jb20vZXhpZi8xLjAvIj4KICAgICAgICAgPGV4aWY6UGl4ZWxYRGltZW5zaW9uPjQ4MDwvZXhpZjpQaXhlbFhEaW1lbnNpb24+CiAgICAgICAgIDxleGlmOlVzZXJDb21tZW50PlNjcmVlbnNob3Q8L2V4aWY6VXNlckNvbW1lbnQ+CiAgICAgICAgIDxleGlmOlBpeGVsWURpbWVuc2lvbj4xMzg8L2V4aWY6UGl4ZWxZRGltZW5zaW9uPgogICAgICA8L3JkZjpEZXNjcmlwdGlvbj4KICAgPC9yZGY6UkRGPgo8L3g6eG1wbWV0YT4KtDjAQwAAABxpRE9UAAAAAgAAAAAAAABFAAAAKAAAAEUAAABFAAAdtkud1bkAAB2CSURBVHgB7J0HlBW198eDFVAUK1hRVOwFRUWsR8Uu6FHBAlLsXRARxYa9oXLsjWZD7B3siqioYC/YRVFEFMWCff755O/NL5M3b9k3b/ftLt57ztuZSXJvMt+ZnZt7c5M0SiwZJUVAEVAEFAFFQBGoKAKNVAFXFG+tTBFQBBQBRUARcAioAtYXQRFQBBQBRUARqAMEVAHXAehapSKgCCgCioAioApY3wFFQBFQBBQBRaAOEFAFXAega5WKgCKgCCgCioAhCEuoS5cuRETrTzHQd0DfAX0H9B3QdyDHOzBy5EhRqXM8pizgrl27mvvuu88MGDBAuyaKgCKgCCgCioAiUE0EPv/8czNixAhjFbDp3r17tbgKFPCjjz5qZs2aVS1mLaQIKAKKgCKgCCgCxjz77LNmm222UQWsL4MioAgoAoqAIlBJBFQBVxJtrUsRUAQUAUVAEfgXAVXA+iooAoqAIqAIKAJ1gIAq4DoAXatUBBQBRUARUARUAes7oAgoAoqAIqAI1AECqoDrAHStUhFQBBQBRUARUAWs74AioAgoAoqAIlAHCKgCrgPQtUpFQBFQBBQBRUAVsL4DioAioAgoAopAHSCgCrgOQNcqFQFFQBFQBBQBVcD6DigCJSBw5513munTp5stttjCrL/++iVw1t+iP/74oxk+fLh5//33zR9//GFuuumm+ttYbZkiMBchoAp4LnqYeiu1i4DdpsQsvvji5ocffjA33nijOeigg8qucPbs2ebhhx92cjp27GgWXXTRsmWWIuDbb781G2ywgfnqq68c24YbbmgmTpxYiggtqwgoAjkRUAWcEzhl++8hMHnyZLPGGmu4G3/rrbfMOuusUzYITz31lNluu+1Mo0aNzHfffWcWW2yxsmWWIuDMM880gwYNMgsttJDbjWW33XYzu+66aykitKwioAjkREAVcE7glO2/h8Cff/7prF/ufMkll3RKs1wULrjgAnPyySebNm3aGBR8pal169bm008/Naeddpo566yzKl291qcI/KcRUAX8n378evM1gcA///xjfvvtNzPvvPOaBRdc0ImcMWOGef31103jxo1N+/btzXzzzZeq6q+//nLjrfvtt5954IEHzD777OPGYZs0aVJUsc+cOdO8+eabzk3N+DNWczFiLJc6aA/twsWM1b722mub5Zdf3rExlt2iRQt3/vzzz5vNN9+8mDinpD/++GPz008/mfXWW8+sssoqRcuGGb///rt5++233fjyUkst5XhbtmwZFsk8L+VeMwVooiLQABDIo4CNHQvz1KVLl6RZs2b+Wk8UgbkVgU022SSxyiw5++yzU7f40EMPJfZ/PWnVqlXy8ssvJ+uuu667Jo2ftZaT5557LsVj3b6pMlJ27NixqXJcPPnkk4lVnKnydiw6GThwYEFZSdh2221d+cGDBydHH320azd13HfffYntMCRLLLFEMs8886RkWsUo7P5I+bZt26bKIWettdZKbrjhBl8uPrHeguScc85JbAckxbvAAgskp59+elzcX+e5V8+sJ4pAA0PgmWeecf8fI0eOrHbLVQFXGyotWN8RsAFVBU20UcEFadbCTeaff373z3L33Xen8q371isZa+m6ctZCTZZddlmfjlIO6dhjj3UKWxTvqquumqy55prJtGnTwmLJcccd52VYyzWxVqrr8Aofdcf0999/J4sssojjs1an54fHWsLJ1KlTXV1Shg40dXfr1i0lygaaJdbKdvy0b88990y4L1HcHG3kdIqHC2slJ+3atfP1rrTSSsn222+f2AAzn2Yt7gK+PPeKkG+++SYly1rPifUApNL0QhGojwioAq6PT0XbVOsIoKQuu+yyBKtWCOXUqVOnBKsxphdffNErjy+++CKVveOOO/o8G1CVvPfeez7fBjW5PCzBmFDkKEXrJk6sqzbOTq644gqXj1K//vrrneVKIZTLlltu6fKaN29ewPfOO++4PFHSRx11VDJp0qTERjynyu6www6uXN++fVPpXNAxwcpGRr9+/RLwEho/fryXP27cOEn2x/3339/lW3d6Elr0dqzZK+9zzz3Xl+ck773+/PPPCZ2Ml156yctDFs/kl19+8Wl6ogjURwRUAdfHp6JtqlUEPvzww8TO43VKonfv3q6um2++ObERyC4tS6kMGTLE5S2zzDIFbRNFhTKPLS/c1Sgx3NAx9e/f3+VtuummcVZix2u9xd2nT5+CfBSbKFgs2pCGDRvm81CeWYQbWu531KhRBUXAAGt3m222SbD+Q/r888+9fDu+G2Ylo0eP9nkPPvhgKo8LO+XJ5Z966qk+r5x7xbUPDjaKO3niiSeczAMPPNCldejQIcEaVlIE6isCqoDr65PRdtUKAvfff3/StGlT94Hu3Llz8vXXXyf77ruvuyb98ssvT1l70ogDDjjAldljjz0kyR1R5qIIRQGEBY4//niXv9lmm4XJ7hzlBu8xxxxTkIeLmjzcwx988IFzTeOelp+MO1Pmo48+SvEfccQRjnfppZdOstzpFEamtBvLtCrCOqcOxmevueaaxEZsO96FF164ACvxBjBGnEWfffZZYgPJUtZ4Ofc6a9Ys10ngXvAkvPLKK4kNbPFuelzhSopAfUVAFXB9fTLarlpBYK+99nLKQ4Ievv/+ezfOyRhnrMjCBqy22mqO77zzzguTk1tuucWloyiz3MhiacdKFpcuCgzFgYyQCGBCeYqCrOrIOOyvv/4asicbbbSR4z3jjDNS6eEFFj9ycd9mEfdy1VVXJXZhjgQXeFYbtt566xSrjar2ZS+99NJUXrGLcu8Vudz/6quv7tr42muvuars/Gp3jcWtpAjUVwRUAdfXJ6PtqhUEVl55ZfdhZqzXrkLlrDqUC0pGlHJcsV0gwyug2MoV640go5hQLmJtx0oWt6soNazokAhskjwUIBHNxX5Y5iFxTxIsNmbMmDArdU6HgDrsohupdC4Y/w0jnwnWYmz70EMPdRYwnRV4caGHRMS0tDsebw7Lhefl3CtyeDZ2Kperlw6NnXqV8FGT54w3QEkRqK8IqAKur09G21UrCNg5t35qTK9evRKUJNG/KA4ifnFfxoQik/zYpWvn+Lq8rClBdh6wy4MXl29IRBiTzvhxTBMmTPB8cVR0XDa+fuGFFzwvyqkYMe5M/UyHiqlnz55exogRIxxGUgaPAcFV8N51112S7I52PWmXjsLOoqeffjphLP3RRx/12eXcK9HPTJ2iLXQYcG1L5DbPks6RBmJ5qPWkHiKgCrgePhRtUu0igCLAZXzCCSe4ighIEoswDiqigF0hyn3kmaoTEgFXjDuiABhbjum6665zeQQ7xYQ1Cd9OO+0UZ7nIYfL4vfvuuwX5jz/+uHNfY/GFEdcUZAwbPqzUYoR7WdodW8m4c0XBosBiCucvT5kyJZUtkcy4xRmbDemTTz7xLvcrr7zSZ4XBZKXeKxY31j5toiMFEXVuFwnJ7Ej5SvVEEagnCKgCricPQptRWQQkWCeslWlJ4XQbyZOpRD169JAkd0SGKEqCuWKymzW4fAKTYmI+L7wHH3xwnOUCrWTcNXah8g8r48PIj0mmAHEsRiwWIu2OrWQsbskLFxzBtXuGHVNmIRLysxbtCPGwS2z66nGxE4QGH3OZw6hq6st7rwSF4WUI6dprr1WrNwREz+s1AqqA6/Xj0cbVBwRE4RGUFBLXKJUVV1wxTPbnsiJW1mIZjKnCiyVql3Z00die0Z5IsBhlCKrq3r27W4SDa36MOYeKTHix/sjHEi5GWKCUybKSmVcrC3SgbInUZr6wpMniIkz7OfzwwwuqkBW7cAFvvPHGqRW8cLdLkFTImPdeQxl6rgg0RARUATfEp6ZtrhgCzLEVpYeFF9Ihhxzi8vbee+8w2Z3j5hVrMWs+rMwPRjbKDAszJFaT2n333X3d0ga7eUKClZelfHH7SjnGgosRVjfl4gAuKT906NCEJSNFFkfqtXshJyxIwpxm0hj/jonFTOhQhLwoY1bRynIxw5/nXuN69VoRaIgI5FHAjbhR+w/mqGvXrsYGVRj7zy9JelQEFIFqIGDHUN3/jbUq3T7DMQv/ZnZqlNvMgE0QVlhhBbPVVlu5zRXisjV9Tdtsh8PY8Vy3mYRdgMRXYQPR3KYQbM3IBgtZZOf7mjfeeMPYNafdTk/Wi5BVzKfV5b36RuiJIlBhBPJsxqAKuMIPSatTBBQBRUARmPsQUAU89z1TvSNFQBFQBBSBBoCAKuAG8JC0iYqAIqAIKAJzHwKqgOe+Z6p3pAgoAoqAItAAEFAF3AAekjZREVAEFAFFYO5DQBXw3PdM9Y4UAUVAEVAEGgACqoAbwEPSJioCioAioAjMfQioAm6Az9Qul2jsYgyu5XalImNXH0rdxR133GFmzJiRSit2Ydc3NnannWLZNZL+2GOPmYkTJxq7MpSxyzrWiMy6EGI3ojd2H15jV68ydjGLumiCr/Omm24ydjEOfx2e2JW5zCabbGJatGgRJhec283sjd2VqSCdBLt4hrFrWLt3Y05yRIBdl9rYhQXc/F+7RKSb48z7ZbcEdHiFc4mFR4+lIVCf3sHSWq6lsxDIo4ANC3EIdenSxS1sL9d6rH0E7AIHfqWh22+/PVUhKyqxspJ92NX6sWF8bRNb6dGec845p7arKls+q12x4lPWSlLscct9sJ5xXRJb/VXn+bIsZbxWcthulrOckxxWsWLJSTasKEasyjVgwAC/8leWTLsgR/Lwww8XE6HpAQIN4R0MmqunZSCQZyUsVcBlAF4TrDfccIP/cH788ccpkaFy5gPMesRV/bKWSUwJLPOCzQ1kHWFrCZcprfbZt9xyS4dtVsdk3333dXmsXVyXhCITJbfFFlskbPbAjzWbV1ttNbetouSz/nK8hCZtR6EuuuiiTs7666+f7LPPPv6HHPbTZVcjkTN69OjMW2b3KLsili/HutX9+vVLhg0b5tajZr9hkUF91jOTKUcT/4dAQ3gH/9daPSsHAVXA5aBXR7yyli9r8sYUKucvv/wyzq74Nev/8gHGkpo5c2bF6y+lQrwHTZs2de297bbbCljZqH769Olu7eKCzAomsCsRmLIVX7E1oXv37u0Vn12+sqB1bGMoirFYJyxU9BdffHGBDPZGZkMH5KBcr7/++kxL+cILL/R10Xal4gg0lHew+B1oTikIqAIuBa16UlYWu99ll10KWiQbBLBrTTmE5cpHGqs13rKuKrmffvppYsd7/eYCWEJ8oFdfffWq2BI2eudlZLecqtyd5LHJ+uzZs5089uRle70nnngiUz770LJ/7j333JPYdZUzy5DIPrgvvfSSVxRs7s6GCqUS7mHaggJHhuxTG8sBX+4jVKDw0tZx48YV5UMOewiDabt27WKx/hqcZMcltvuLOz8jRozw98rG9sVINmU46aSTCoqwCQXtQH6Wy14YUCqyoxS7OhWj6mIHP7iBHzhC1IH3x47RJ1V1PPPyuUr+/VPddzXkod5XX301ueWWW9x+z1nbV1b6HaR9NYFHeJ96XhoCqoBLw6vOS7NdnOyyc+aZZxa0R5TzHnvsUZBXnQR21DnqqKO8JcgHFlckrsX3338/UwRK5pRTTknswvz+o968efOEDd0ZP0RGsQ8ve7rKFnaU44fbdODAgZl12cAhX2b8+PHO5QqPDfRJlWez9rZt2/r2iOy11lorwUsQUrhBvZTjyB62QnzYwR0LGaUfE9hgaYb8nLNVIYo9JuSR36pVK9eBkK0LhR/vBveaRYynUu7II4/MyvZpgwcP9u1BsYfEM5b6w/TwXLDGe0GnKiTwlbaee+65YVbmOe9Hp06dEqzhmErFDn46H9R/3XXXOZe3eC5Io73EpmR15PLyUWep7yo8/G8Q+9C4cWOPF22kY3P66adTxFFdvINUXA4e/99y/VsOAqqAy0GvDnht1Jz/R37kkUdSLQiV83nnnZfKq84FFoTdccfJ5wPBfq5YrvKhXW655RIbhZkShTUgm8tTDksHpRKOH5LOHrQxHXfccV42gU3IadasmU/L2kf3kksucflYXQsvvLAve+ihh3rxN954ox8HxUXKVniMc0qbOIadicmTJyc2Wtd3OnCnch3Wz8eS+0BRxjRq1Ci3ry/5KE4sVD5s0lECy9gqQzbl+XEvuJNpo+y3W6wurHjhGz58eNyU1PXYsWN92bgTIB9exn6ziNiCddZZx/EfeOCBBUXAlHbQXrFCCwpVIyEPdlht4EX9grGNsHadMEkn7+677061IC8fQvK8q2yzKDjTnpVWWsnt4yxj76Q9//zzro118Q6Wg0cKWL3IjYAq4NzQ1Q0jY3H84/KLA1pC5UwgDW7DrB8RqyjrkHBRymbuBIHgShZiLFCUV7zRu92O0rXFTllJ7PQnYUloS2iV4CYO6YorrnB8KJ9w7BDrUoJQsKJjQmHI/dNeIpa/+OILfz+M02JBU4ZgoFA5YDELL27emMQKzfIsEOQE70EHHZRiIwhJ7rNHjx7eNU4hFCDWGHyhtUOeyCMPVzHufiE7VcvxYDXFdOutt/p7KLa/rvDgBpf7Dd3vfHjFtYySPeKII/yPQDNwEEVGkBd7/IbEu2KnYjnZeDnyUl7s2JNY7osO25AhQ7zLnvdMML/gggtSTcvLl/dd3X///V07mzRp4t4FaQz/W/L/FHsPKvkO5sVD7kOP5SOgCrh8DCsqQcbdUD4xhcpZPlBZRz4I8dikRPhiVcbWGvXgjkUWY8xCRMaSxgcvK8JZlCUf63A81c499R/4Pn36iDh/DC23qVOn+nROsK6pk3ZmjaOhWLEk7fzo1PgqvFjvggcf/5CwVuSjaPe3DrPcuSh1XJ4hyQeTOrNIvAOdO3dOZYs8O1+3wKV99tlnu3ZmBdmJJUZkeZaLNazkoosu8vdLwJRQ+OEVPIod6XDF9YSKPasjI/XM6ZgXOxSutBdXeExiFcdelzx8ed9V+d+gnVlBbgyZkHfqqaf65lf6HcyDh2+sntQIAqqAawTGyglhTJF/XHrXMYnCYyx2v/32K/o7+eSTU6wE4WCJIvfEE09Mpk2bVvDbeuutXX63bt08r1iqKO8sEjfrpptumsrGaqIurJcPPvigoC4ZH6VMaLnRLtL4xdZNqoJ/L1D68DN2d8011yRt2rRxvCjv0DKmuPwjIDsOOvvwww99veG82lCREVyTRViQyMQ6FgrlZQWPMQUKnnAMWnilI4TVPCfq2LGjkxOPj8uHF0XFODHzm+VHlDLjpxI0RTviCGiUMul0rGLlPKc2SX5e7OA/4IADXP1gGxMeENrGj45cSHn48r6r4uEg5iCLPvvsMxekR+CZUCXfQerMg4e0VY81g4A885EjR1ZboM4DrjZUNVsQi08+LrErmJpEOffq1aukiuWDLLKrOorynjJlinf13X///Zn1MS6LrGOOOcbnY3mHH/eq6sIiJTJUCEuC8rhmJQpa8uSI0r3qqquSDTfc0Hcq4jroTMQkU2UYM45J3L64mom2FTr66KNde8A99ihIGdpB/X379pUkFwlLGh2Q0DMgBURph7iRh3tegnnkOQhPfMRtLG5klGpI8uElYK8Y4S1gzJ92cg8hDRo0yKVXd0ESxjeJAKbjIZQXO/hl6tP5558v4vyRDo0877gjVSpf3neVqWrSoaVjU12q5DtIm0rFo7r3oeWqj4Aq4OpjVeclUXTycYmnfYTWIdZeKSTuZ8ZcWbWqqp+4mhl7pS0oySwlQv2tW7d2ZULrkOAnuQc+7FXVhaIICXcdvO3btw+T/TnWTxj5jJsWS5GOAJjIB6d///6eR05YXAPZcZ3kixUUW1xSV6zgRCb3KuORBBsJiTxWooqJj76MKYe4UQ4lJtjde++9MWvqmsApyjLWG47nU0hwYD55VSSLaOAmD4nOBLJ5vnMigrmk0xCOg+fFDqUqGEgAU9gGgg/J5x5DysOX910NI8RDCzdsT9Z5Jd/BPHhktVnTykNAFXB5+FWUm6k5fFywbGIL8IEHHvAfpnjKyJwaufPOOztepgxVlwicoi1Z45TIoA3yocTNLDRhwgSfTqehFCKwDJkosCzq2bOnl80819AqJVqbsW/477rrrgJ2rDny8AbEhMInL7RiKcNqUaTH05qEX6b6sDQoc1aFRF7WVCtc3MjkF+IGL5a95MWBUSKbI+5dUfzxGHv44S3WbmQwHsmzpb44UloWgiEvK14AfiEJKAODMGgwL3ZjxoxxbcLCDL0jUh/T72hXPESThy/vu0p0Om2gA5hFTz/9tHvP4liDSr6DefDIuhdNKw8BVcDl4VdRblm7lzm5MYlyxtrImqcalw+vZVyRsb+YcLkylohVFk5HkQAfPvRhgA/8jAvi5uUjRHR0SGGAVVYUL/NVGaPlF0YGIxNZyIwtQ+TzMRYFm6WgxW0KP+7zkFBmpPOLp+uEbt8wyht+aU8YSCNysca5B2QedthhkuyejUQQZ7nuCfKCJ8YNAYwjk1eV65fgH1GcBKyhcEOSDy9ymHZWjIiUpwy/eA1nrHnJO+uss4qJcOPKUo7AspDyYAc/9SETCzqLmI5EfjxEk4cv77sqUdN4h5hXHxILw8h7EQaJVfIdpD158AjvQ89rBgFVwDWDY61LQQHhIubjwrSRmCTgJitwJy4bXzPWiFzmJzJeJ4QVxLQb8lDsoUX21FNPuXTywmk7THFB4ZDOj2CUkLB6ZXwsvg9eRhkfjqf7ULfIDNshskMXfPixpwOBi1giY1u2bCks/ojSF9mxRRe6fWNXrmwygTUXriaFtS0dEOZ+hh0U1mWWurKiuAXvGDcay9xkeJHNh1x+ROoSuEYHSmQzvsxKXDFJRwTlAI4igyNyGFoQqxVZWS55PAsSb0AZxmJlpS3eU+RKQCD5WKOkh5QHO/jFLR52akQu09Hk/vEChJSHL++7Gj7jMFiQMXDp7NKJ4n9FqJLvIHXmwUPaqseaQ0AVcM1hWauSwvGoeAGGUDkzTaVUwu3JB5mPF0qeRRYYj7Lb0Lk0xhHjRT+IIg4/wowTwhemIS9czELaJWNd5GPNs0qWTNchDUs//DjBd/PNN7u2YDnFH3Pymdcsmz6gbJmGhMta0mSBC1yhsaudqTTUy4+FSMIOhbh9iSyPadiwYZ4Py4ux9N133z2RlaqYahSP1Ys8cMoimZoT44ZFLW5laWuxIyuLvfPOO1ni/Ye3GK+kgyHzqOOhDhF69dVX+3sXHjoiYtmSxjtFJysrRiAPdtQtHbShQ4dKU/yRhTeoN2uIJi9fnneVBsnqbjwzFrSRa9rHe8GSqyFV8h2k3rx4hG3W8/IRUAVcPoYVkcC2g/Khi123WC+SR8RuHiLCGKtJ5HDkI4wFFM+ZFfl0CmTcSvhQcLiIZZwTyywmLGsUlfDIkaAeu89xgfKF/4QTTnDlUarFiI+yLDARysSqwyIS12wcxMVc47DjEEbXytraWAxZxEIKWYqR+8uycEUe87ljQlGJpR7PHZVlIeW+wiMeBdqP1UxHJe68hPVIZHPIL+d0vjp06JAwxpu1g1Ioh3PiDvAoCL8cwYMOFd6DqqhU7HhOUkfWOynT3uIhmrx8tD3PuwofLmVZFlbaDC50UuP/X8pX8h0sBw/aqlRzCORRwI2o3r5UjuxKSMYGE7jNtyVNjw0TAfuxMZMmTTJ2jNRYRWrsh8zYccQqb8Z+7I1dfcjYf2pjt8Iz9qNjrBKskodMXiE7R9fYD6mhXmt5GruWsrEKaI68VRWg7VZ5GGt9GatoTbgJvHUFG+uWNXb7PGMt2pQYa+kZG7Fr7DiysW7jktph3c8ON+sCNXbpTmOtWGOtnJT8ufXCuviNda0aa3EbG2hm7LxX9+P9qQ41BOzKeVftfF9jx9qN9YoYOw/dWMuzKCz6DhaFZq7NsCsGGuutM3YesLGewGrdpyrgasGkhRQBRUARUAQUgeIIqAIujo3mKAKKgCKgCCgCtYaAKuBag1YFKwKKgCKgCCgCxRFQBVwcG81RBBQBRUARUARqDQFVwLUGrQpWBBQBRUARUASKI6AKuDg2mqMIKAKKgCKgCNQaAqqAaw1aFawIKAKKgCKgCBRHII8C/j8AAAD//6C380AAACxvSURBVO2dCfytxRjHp+xkTXYlS3aylrWiKJREoigpuraQ3Da6oVXXcitdZSsUUuQiWghlX7KTUMoSlSWyczzf0e98nvf5z3v2//+ce+88n8/7ec+ZfZ53Zp51ZtboGKRrYYcddkif/OQn0/nnn6+g+q4YqBioGKgYqBioGOiDgW9+85tp9913T8uXL0+LFi3qk/raaAiw4JnPfGZnzTXXhCDXp+KgjoE6BuoYqGOgjoEhx8Aee+whktr3vQYpRKqRgFesWJGWLl2qoPquGKgYqBioGKgYqBjog4GLLrooLVu2LB1xxBFp8eLFfVL/P3oOAf7Upz6Vrr766oEy10QVAxUDFQMVAxUDFQMpff7zn0+bbrppeu9735ue+9znDoSSSoAHQlNNVDFQMVAxUDFQMdCOgUqA23FTYyoGKgYqBioGKgbmDQOVAM8bamvBFQMVAxUDFQMVA+0YqAS4HTc1pmKgYqBioGKgYmDeMDARAsw+4AsuuGDeGlkLrhioGKgYqBioGFjVMPC1r30tPec5z0nHH398esELXjBY9/xGpboPuO5/tlFT9/1VHNQxUMdAHQMjjoGx9wEfdNBBg1HvmqpioGKgYqBioGKgYiD9/Oc/z9LvYYcdlvbdd9+BMFK3IQ2EppqoYqBioGKgYqBioB0DE7EB14M42hFcYyoGKgYqBioGKgZKGKgEuISVGlYxUDFQMVAxUDEwzxioBHieEVyLrxioGKgYqBioGChhoBLgElZqWMVAxUDFQMVAxcA8Y6AS4HlGcC2+YqBioGKgYqBioISBSoBLWHFhf/vb39Jb3/rWHPLiF7843fzmN3ex7T/POuusxGXL97///dNTnvKURsKPfOQj6Te/+U0jzP+53vWul+5+97unRz7ykemGN7yhj1qpfn/sYx9Lv/zlL9MjHvGI9OAHP3iktv/6179OL3/5y9PDH/7w9OpXv3qkMmY1E2OAscD3ZhP+GmusMRNN/fKXv5y+9a1vpZvc5Cbpec97XqNN3/ve99IXvvCFRpj+3OhGN0obbrhhHvP0qQ3+/ve/p3e9611t0em6171uut/97pc23njjdJ3rXKeYjnHF+GoDcHmLW9wij73111+/LdnMh486RlirwN3RRx89lT7+4he/SJ/4xCfSDW5wg3zh/FQasRJUOgoBTvEgjpve9KY+aJX6bYtN3lxui0vnX//618B9e9zjHpfzHXzwwXPy3OY2txlow7oR386HP/zhOflXloA73/nOuZ/HHntso8l//etfc7/o2x//+MdGnP9jzE/HCG8HPHz/+9/3UavEbyNCGT+MBw+D4sfnmeTvpz3tabld97znPecU+9KXvrTv2OV7vexlL+v897//nZOfgPPPP79vGbZ2dm5729t2vvOd7xTLYEyRZpDHGMDOb3/722I5sx446hjZeeedM26+/e1vT6WLb37zm3P9d7rTnSZS/7TnxEQ6USjkc5/7XMaTXUdYiC0HrVYEeOnSpRlBJo2WsVEI/c9//tO52c1ulvOZJNxIcfHFF+dwFo4HPehBnSc+8YmN57GPfWznVre6VTeNSRKdr371q40yVoY/Jrl2+/CNb3yj0eTPfOYzOc6klM7vf//7Rpz/Y/dj5nSmgfDBq8zvF77whbl/piFp9GlQ/DQyTfDPHe94x9wu8B/hYQ97WI67/e1v3xi3j3rUo7pjXkTRpOcOcyGCFmfG9vbbb999tttuu85DH/rQRjn3uc99Yvb8f5dddsntYJ7FOfSEJzyhQz6TAHMa2kOalRFGHSMf/OAHc98XLVo0lW4/61nPyvU//elPn0j9054TE+lEoZBKgAtI8UEctckEfuUrX+mDe/7+4Q9/mPNAYP7whz800n7oQx/KcZRJujZ4/etf30337ne/uy3ZzIaffvrpuf1IQ//85z8b7bRTX3LcBhts0Aj3fyThoElok6R8+pXxt6lrMx7e8IY3NJo/CH4aGSb4x1S73XFn6stGyaY67lz/+tfP8a997WsbcfzhO5133nkNBvKzn/3snHQ77LBDLuMhD3nInDgC0HzAiDJHTA1eTHPve987xzM/2+BXv/pVBwmMcobVYLWVudDho46RK664IvcbBoXvttCAZut3v/td589//vNEqp7mnJhIB1oKWSUJsB3v1Tn77LM7Zl/r/PSnP23p+txg1BxIm15dtd566+WB/IEPfGBuhmtDkGrN3tv597//nUPe85735DwlFd6rXvWq7sToRVhYPFg4eN72tre11k0EUiQf0i7EGIhYUe+Pf/zjjl2i0TnllFM6P/rRj1rLZ/Jec801RfU70g1xLJgR9t9//9x21H8CVPik32abbXIc0g//Ix5gTFgwzX7U+clPfqLs3fc//vGPnE/4Blef/vSnO5dddlk3jf9BO+kj2oirrrrKRxV/D4Mf4YB+lED4U1uVhvRm68x4OPPMM3PwoPhRGfPxZs5o3NlB8Y0qvvKVr3TjzL7XiPN/tKhQDuM9gtlkczkvetGLYlT3/6GHHtqtK46vP/3pTx2YW8pHQ9ULzLae06255prFMay8q+IY0dqFGW0WQHPFMwQwCqzVMG4lE98szIn5xJ3mylRU0Cx0qIbgdi+66KKx+4nUhVpXC4jeqKPe8Y53tJaPnWSjjTbqLohM7gc+8IGdM844o1vWz372s0Z+BgZEZp111ummMaePzp577tlB7UPdJRXeox/96ByHZNcLGJBqP8SlBKhl7nvf+3bTkR719QEHHFBKnsPs1LLcN5WtNxKFOU7MyXeve90rlx+lNBJCvMl/y1veck6+xz/+8TnuFa94RTfuda97XaOtqlsESAkf85jH5HR2NqqCGm/Z19/0pjd1sElK1cj393D11Vd3XvKSl3RufOMbd+tlIUbyggEpwbD4kaoPZiESWcpn7NHPqEbX9/Vq+EHxU2q3D0OVi+S3ySab+OCBfu+zzz65vfQHRsfDUUcd1cUj0k0bMDdgoOg3qmkP5NN3h1FtA33jpz71qXOSnHPOOd0y+hEXjUPmdwlW5THC2gquUfmPAqOOI5gz5iTzzmu/CKc9MAYwd+ag2v2OhN/61rfuxO85qTkxSv8XIs9UCTDSDYhnEerljDMIIt75znd2uWLzIO7gSAIRZcGlDt6lRRfOAzUpaZBI7nrXu2aCwn89DAwPSJwsLIrHiYZBpboUfswxx/hsmcMTMWgjLmSAMZEjzAMe8IBGGfpjnsHd+llsaQ/OcKq7pCKEYIpYkWfbbbdt9APbmQe+iSQNpOUIkubjQk/7zVs8t+Xkk0/uZoM5AU9qI98Jwn/55Zd306CyVHyJKYOLln3dMz/kwe4swHlHTmCoTbFdopFQ2dg5I8MxLH6oa6+99splUn4EJDWNiXPPPbcRDfNAW7wafhD8NAop/AE/a621Vi4bO9ywsNlmm+W8OL9FsGvTctxd7nKXGDXnv3m957RbbrllI06LMH3/wQ9+0IjTnyOOOCLnZT5eeOGFCu6+JR0zlv/yl790w+MP8+Tu4v+0006L0dnBa1UeI8xv8NyLIZ+DlGsDxhlHBx54YK4XAuuBNUnzj2+LDwBr9B3ucIdueMwziTnh2zBrv6dKgN/3vvdlxLMIjwMQCjku7b333g3Hjy9+8Yvdj4vU4YFFWjYtBqu4erg2EUAGzJOe9CSfrSMbFpIfNl2BuZQ3pK2owkPS1gBksUdS8A8MCV6PT37yk3M6BujHP/5xFd99Y5ujHAax3SPZVeHSbkmPSOMeUPvI+zras+VoBvPhAdWQ2ouqKILqWrx4cSNKNnDyRhMACyHhJQmLQjbddNMcXyIAxLNoq028kXBZaH37sLvf7W53y+lo48VmIhDASIgoeql0FPxQphgxJPEIchyhvmgLk28BRM1DP/z4tKXf2HBxGORhfg0DLLpi4vBijnCPe9wj47SX3VV5lDb2T4sz3w4HI9TQPPxGWtUYhVF9+9vfruIabxEW26rUmD/MJSRaxi31wDhTD9+IvnlYHcaIxhhzZFgYZxxJ8t5tt90a1Sqcb8K39qYvHBEJRxiKMO6ciOXN0v+pEmBtacBbchyAsMJJsXh7+wJlIuXwYXn8VhYmpFQgqMDjBPULPWoQgdSuSIbRw5k02DWpq0RgjjvuuG5b1Ka2NxJaJOCUb/swM+dIvkhIiUedqzKxjQog5AqPWzuwme++++4d2zuo5Pl9yCGH5DyRMBOJulXS/KmnntrId8IJJ+R8a6+9diOcPxBr2lFSCV5yySXdNnri6AuRfZ0yYLZKIA9MJEEWkgjYpcmPfVAwCn68qrVkw5GkBqGIgBRJG6KjUy/8xDIm/Z/5QZt4IvFG6yNtCNJ7L2AuSasUx6hfhFVX6Y1pJZp9VCce2KU8pTBMIFGVTjmrwxgRMzvMXbPC8ThvCUOsdx4UDnPtVdOkwcTF94vaRuKmOSeofz5hqgRYWxqWL18+sT4y2ZC6kD4oFxUfH5bF2BNZSSfElVTTEBgtONgFBZL62tR7UrOUCAwcYWmRKIVBvL70pS+p2u4blQzpkVSQmFHf+ser+Lz06QkMKh+8rPs5bclZqtRXL81feuml3fbxA0JOG7faaqtGOH+0KJQkLJzNyIdq0Q4gmJOXAKQl0iApoeKNgAMdmgHS2MEdDdwIT6jMiffS2Sj4QfKmHJ7SGJKk9vznP7/RTNqofHGLWS/8NAqZhz9426tdjC0PnrGLmiSfjt9e6xTt8lqEGRvYJvUceeSRedxoftEOCK2fs5SNo53aOMibbxzLWF3GiNTrMNILBZiN9F38HmQfjg0/AowS+bzTptJMc06oDfP1XjACDBKZfP4RgWOrgQ+HQMRJ0wsBEF0Wb+xOWnw1CPSOdkokPuJw2iqB38cqz1kIjdpsp/CUsmVVGuWWCAySEHE4liBR+AfiwMLlbbuxDCQuqejUr7Y3ak+8ugX8himI6cE1KqrSlqjb3e52Of1b3vIWFdN9ox6kLNJEwMmJuCVLljSi+KayT77//e9vxPGHRZl8m2+++Zw4BbSVrfhly5blMmI/S//3228/Zcu4GhY/wgHqfuzeESSpRVWqiD3mDy+d9cNPLH/S/+U8iGkl9kfb4mCO2jy+1R5ptnDE8mPQL8J4W7eBNAd8M8w6HtC26FvCoPo5xDzFZgzR1/Yj0mr+qpzVYYzgOa616qSTTlLX5/1NXeAc7Zh3SmS+E47g4Me8GiTn1LjmTXtOqH3z9V4QAoxaGHumJk6/d5v9r4QE7L/e8xkHHewL2JSQgHH0ob5op5T3cJuDAipF8pFfwMlNhEHcSoOIdKhrSRMJDDZA2R5xMukFsl3tuuuujWRIWZTNA7OBp2jbs9NOOzXy8gcCTrtgAGTrU3ksut6JyavuYQwi4LBF3uilysTXt8aL3APqc9VXcrCSdMSevxL4sts8w6VahCi24Ubh0YQwDH5oH9+H/myxxRZzmgtxUF/RNHiQliSO83748WXMx2/No+iMR12y0WHq6QWMUX1/5qAHLcLgpWQaUFrvQ+Cd+IiXOjJqtJRXb/lJUFd0tlsdxojX8LWp8oWrSb6loYOgelB4iblm3smcFdfNac8J34f5+L0gBJiGY3f0jyQ9CIkP53ecML06jv1YC92JJ56YiYzSwx1rO0S0U8rzLnoqK+/WW2+dy91xxx0VlB2eqKtkpyARe4HVlqjCE6KJPzd4xHYruPYH6mfSgSMPqCtVPhLzOMCgp01SM1OuVxeK2UCjEPdhQqjlTR3VW3aOcLeNV155ZaOJeKpTD4Q2At9KfWs7ftMTtSjVqDxJ0eOeANQPP9QnJu41r3mNqu++pYZn/FGWB9lBo+NWL/z4/PPxG0lV2qOSB700L5GoxrYI/yyonqEjnRZh/Bt6weGHH94dC95vgzxSR0aNVizPE+B4GI7auCqPETEq4zq4Rrz2+2/nd+dvx+4ADwovCTzenBXXzWnOCd/++fotulDyIWmrcyJHUeqYwUhk2iothbNoiMAyuSP4PWTRTimOq3RQADYKqW+8M9Ab3/jGPLiIi/ZHVHYsChCR0r5Yba0oecT6dusEG8ph8HnwdriSyhjvTyQDHu9hqL2wUb1D2aQT4SO/QGq60mKpyU0+n4e84ItwvJAjsHgTF7emkA6br9oRJUaVo7K9VkJxesvBquSpi0oMaZVvz1m5glHwQ16+M22Oe8yxU0qaxwPXA+NE+aKjUy/8+DLm47c/nxkVuQe8yPVt4phUOnYQcOyg0pUctbQIs8OgDXAcFO7i1i6vjsS+3wv4prQFVXSE1WGMsH2R/vfDU8TNOP9xrJLznd8dQjhOqbSnZLqTc2pp3ZzmnBgHF4PmnRoB1p7McewTSIGa8P6gCBbaJUuWdKW0kp1SR91BYLw6DClLtjvKRqIT+D2qBx10kIKz5zWehmoLEk4ELU5ITb1Alz9QFouiB/orKSWeIsSHlJQS3f91MDsLmledQwxQIVMXOPKeiSJ2MDh4JwPEyzOaPDAicf82GgPinv3sZ/um59/asoP9PQLlkI+n7UQrle21ErEcmAzKYB+y30OKCUBOcCwSntMeBT/Ui5qbuvy3QLUuswdx0QuYegnn8e2jvF74Ib4fwCCyRW4UplbnM9MufxIcdfrjU1lA8ZrnwcmPMYqpx+/JLu1qYNxpEYZZVhm8UZEyfnHEEnPCuPvud7/b6LJXR7ZpSZQBMwN9Kak8V/Ux8vWvfz33HWa/xKgLR23vUccRZ75rbMO0CdQe4krOlZqXpXVz3DmhNszqeyoEGJWQJMySLXBQZLEJX4cyoBJFPYX9SmFSM+PkFdVNSC0aLKiU2XvLIQQQOO0NxpbltzXBga+77rrdfNjw4OZ9GGWWVHjySIx23dhX3X5COZEAk1aEnHgcktAkaJASxoLj20we9goTx4MjGNIB3qHaCkOfo9Tj8QM+6au0BiqLU7IiaP9tyXFLpxKxEMOh+8nIAq1y22xWKttrJWL9qLNka4dA8n3AGTfrUD7fNtqmR8EP9cK8qc2ceKW9ryI0xHFSlgftfYfQwAB56IUfn67tt74n43hYkF20dMiGDhtRX9ve4B3GlHkSwS/CbfkVzriCEY7g50Y/M5XmW4kAr+pjhLkNLmHGRoFRx5F2McCMeVA462QJtB20tG6OOydK9c1S2FQIMJ6NDJCSLXBY5LB1QgRTExhHKDhkpFc5NKH+ioB6Rnn0ZsJqkeRmlgg4mXgPS/JB4HEekIqNrUAesIWq/H5brpAClLYkySDJyT6tdLzpM962kfjSDlT12BslPft8EOSSQxPSrhytlB6pBIlOWwa8Gpd6OARBaUsLqPb6kQaceS9J8kt9FSWfQcomjQBmIjqZwaDhmBZtiuQZBT/kW7FiRZfZU79xZGLbmpgAJDwPOj2s5OjUDz++nPjbaxA4TnJYkEaqpLqXNKk++jeaBhZQiHQvacszdD4/v8EVWgO0MZhqSmOY/si7GmaqHzC+KBtGH/+CCKvqGIF5RXBgvJfGesRD/D/OONK52wgzHhT+jGc8wwfn3zDe8ieJQgAJxpkTcyqbwYBRCPAa9MMGdwbjspItOMkWXwUt+Nvsu8k47GQTOV/ibSrkbhvMVptsQU/GVSfjzLrh+mGcdL58nLwm5SWfV2ni2xaIZIdkJLNXJZN6kklzyZiAmGze/oN+U/8lm2DJCHIybj+ZSr318nI1hDwmVSdwYirnZBJlMim650XwNqGTHUqSjJFJpj5PtuCquJHefCvGimknkjFgjTJsD2hun118kUwia8QN+we8cKk89dlinPtpx2D2LGYU/NgCksxLPDEmwKcRsp519IvshZ9+eWv8cBhYFceIndqX12OTJpNtHRsOITOaelWeEyaMJtPcJnPCSqbNHOgLzBwBHqjVNdHMY8DUl8kc55JJU8mceGa+vbWBFQOzhAEzdyTzvciCBEyhabxmqXm1LQUMVAJcQEoNmg4GzHEjmSoyS9poLSpUDFQMDIYBtHFmCsiaOHOGSmYmGyxjTTVVDFQCPFX018ojBuzAh2QXJmTVMar1ChUDFQO9MYBJyjyIE4u5nTGQ7CKO3hlq7MxgoBLgmfkUtSFgwC59T3bhQjJHr2SHCFSkVAxUDPTBgDn6JXNeS7bHPZmjU5/UNXqWMFAJ8Cx9jdqWioGKgYqBioHVBgOVAK82n7p2tGKgYqBioGJgljBQCfAsfY3aloqBioGKgYqB1QYDlQCvNp+6drRioGKgYqBiYJYwUAnwPH4Nu/M02XGLrTXYiTV52w1ei3YKVGu6WY6gf/STvtiJNz0P9ejVD7s5J9nJX3kPo51QlpNySIqdKpbsaMdk50f3yt6Is9ubkh1XmcPsVqKxDw9pFN7jj52+luxSgmRXsSW7tq9HyvGj7MzwZMd9pr333jvZUaTjFzhCCXbkZLLT13JODhPgoBYPdnZzop0lsFPV0oYbbpi3zjB22oADTuwIyrbovNfVTnPLB/DYiUrFdHbWe7IzrItxBNppWcmOLU12SUNaf/31W9PNegR9pK/0w26Zm/Xm1vYZBkYhwBO5DYnTtFZ24HxbjrwsHbtI33Q5guG5e0Rj6TdHMPY7XH5WcaXzeelrhH74UXquO+SsafDgj8/TBQGlG22Ut/TWhRYcnRmvAiyln0QY5zrrcoa2G4OGrYcjMhkXPPHSC464ZCxtu+22wxY7sfRcHarxbKeXzSlXR0cqTenNN+dyhHgutgrjPPRSvhjG8ZS0pwTHHnvsQGVQJjclxcsoSmXOYpjOv6a/HnqNI5+u/l54DIxyFGUlwNd+Jzs6MU9szkaOwG0gWiQ4H5ibPvzDbUy6do10nN/Kfb8rG+i6MC5sj9ALPz6trqaMlyzoggAuUxgGli5dmnFvmoVhso2VljPC9b25tWcSoEvV284z5tICztH1t3lNot5By/DnO5cu0OD2LXDC7WJ+7HN5iC5MEc64Qal0iYOYMObH9ttv33222267Dme1+3K4EKMEu+yyS24HaX07+M2Z3OTTecS0h/CVDbh7WbjkViIP/caRT1t/LywGKgEeEd9cJKDbgU4++eQ5pfgr3HodUm/ntXYnDhdLrGxgasTcfn8dJH3ohx/1U9IJB/5HKQipj3tmuYBiGOBCARajeBXgMGUMm5bLK2grT+zHsGUp/WGHHZb7scEGGyio8dadt4ceemgjfKH+cK0keObCkwhcqKBLUkq33ICj8847r8GEct1nBG70oQ5u/ioB2hNdLcoFDCXgUnrKKF00ofTcQ6xLVhZSc6L6x32ffvrpuY9oFPy1opTbbxyNW3fNPzoGVkkCzIJtBzp07NKBoTADB84F9WeddVbnqquuas2LSofymdQ83N7DrR4edOsNXHevBZmJr3K4tqsNBm2bz8+1j9wIdcopp3TOPPPMDtc3tgEL5jXXXFNU2VI3cSx2HgjTDUuULxgEP6SFMWGx4/o+fz+vyhnkTV1oDrza0C5dyDgtqUUHKXOSaYQ78Cu44oorOmeffXYmQCUVOWHgdptttsn9QPLjfxxHdmBJjod5mQbo0ne7AGBO9X5+xNvBfGItQMwB5kwEs8nmPvo7l2MaGBDNoThGWQN09SmakV6gW3u4nan0XZSX25Vo9wUXXDDnmyiNf/Pd0JDYCW95LrLGtMEo85Cy9t9//4wDVOiCQceR0tf3wmNA498uYxi48ompoBmYqHvgYMe5F1gtx36I2pMJxIREbcXihE2Q+1d5SkSZa/SQJiTRkpcy4LqZOB4gtP6+V018P/BJb444uQ39FkekAJVRuhZwmLapnfQR+xvcsMrmjURy8MEHK1njjTqTNFGSJREEnDjw50Ft9yrSQfFDOVJR77vvvr7Y/JtFG7Ug3yRy9CTgTteNNtqoywDQBnN8ynf9qs8lteicilwA9kakIB4unh8GsGHT3og/+kF7YArsBq18dZ/axxvpkfHpwS6kaHw3pfdMDulhroiDyRsFxukvzJzUttwBHOGoo47q9gGtQBtAJGDC6AeqaQ/kU99hNtqAOUY6rjOMcM4553TLiHiOaXX3LOOqBKhyzdGsWx51YkY64IADSslzGFdTMi7VD72Rykt3Go8yD6lIbffmsEHHUWvja8S8Y2CqBBiphwHJ4hmdTIbtOffxesLI/bgiqCLIXOgeAccNOS9AoLBb6W5U2sal636iXHjhhR0mj8rmPlT+ezUbi4riS8RFbYAB4cJ46kGaiDBs28jPwggzQJn0h0WNhcmuH+wuAtFpDNxLSoBLjyBpfpNNNmlE2Y1FuUyvIh0EPxSCupE28pSYrwMPPDDHcddsBLhFMRdI4HxrmAOVx7ukFo3lxP/cRasyIuMV0/r/SC0we+Q97bTTfFQeFyqTtpKOBdmuY+zWFfu45557ZoKtfNyVyxi7/PLLG2XDhChNL4mtkcn9GbW/FGHem926zzjjDFfq/3/qUngud+8H5rGby9pyyy0bScW80Ee7ErMRpz/qA7hl7EWQdAyz0EsDZFdXdhn3+A0pk7u5hWsYNOaVv3Paz3+1AcZVTAp5cJgjn8qJd0KPOg9ZR1iHKNebwwYdR2pvfS88BqZKgHXxPYvLOMBCpAUZO49tjcnFobbzl8rbVV2NalDRQpQZuEhjF5vjlABCJMIdnYNIw6JJvhL37xdGJiGLo39gPPAe5uJqymBRjpdRj9o2Oa3gkXvJJZeoO5nBYRGgvqjuQB1KOA/q0QiSVBcvXtyIkq2VxTZCL/yQ1rat5PqQHEuAZoT27Lbbbo1omBLZFlnQJF0hJYuZIV9JLdooqPAHiQHHLSQqFrVBQZIo9V522WWNbOoHcUgpXv2I4xrhjN0IEAHiYCqjeUNpUeGThqf03ZSu7T1qfynvyCOP7NZ95ZVXzqnC7snO8b3srsqktHEciQmjfzj7oYbm4Te41C4DmF3bDqXiGm/GCPltq1JjDjIf0S4x9qkHho10EEjMBh6OPvroHAeRP/7447tjgzGnucF88wBTpvZFXwQ5CcI4ehh1HvpxYHda+yIzQ0i/eo2jRob6Z0ExMFUCrG0KeECOA1ILwUFHSYCtMAxAnkhI5WW71lprFT1JJUliG/KAjVnEGRVThOOOO65bp+pueyNho5qMMGrb1GaIUQT6j+NMVHUfcsghub1xQSC/d6Y69dRTG0Ui3dAvFigP/fADYyB8xG+icuQhDi4FLIwi7Jgt4kKJlKRyIS4LBcuWLcv14u0bQf2A0YiqdNTVtLckrcPsENemDqUeTV7SiemM9c/Xfzv0P7evpFXCRiqNClqSXsA3FPMcCZVnXvRdS2/mf5u5gW9SylMKQ30bmR082qXdiO2jX5gFVBb+HAIYaoXH7VFsIWMe2h51Jc/vUefhCSeckOtae+21G+XxZ5BxNCdTDVgwDGgOR6GoVwOSj4TDRRUzCmibwvLly0fJnvN4Zw8kkQhwuZoIXvWK0w4cLXF28ENW76Hi8w8qV+IjZy6kEVdy1kJqU5393kwa3y7aP07bvIoL1TOSFAtiL5CzD0Q/gpfmL7300m40bVTf4vapfvjB2Yy8qOdKhAOVtMqmfoG2UxBXUhHDLGjhLzFGKmfS75122im3N+7J9f3AFhmBBZ++RP8B0klDwB7ZNtAebKSbYST2tvKGCV933XVz23fcccc52TxRwk+gF9jF8d1vjSevBzEvW221VQfNjh6kb4iXpE9wCKGNDBnaCI2jQd7M81gGalzyssahufLrA7+9mtxLn54AY25gt0M/p61R5iH4Ahe0ETxFGGQcxTz1/8JhQGvlvBNgBgITyj9aLNk+4MMZsHEitKFEthnsZCVgoWZwwsV6D0lJLYNMzP32269RtOxObXWi7qJcCCDEzz9MWhYdtZt0cZEdp20rVqzo2p3UNwgdalX2bUYNAR2TfdhOVmr0kz+o9iiHNB60wKAOjlJDP/ywUFDm5ptv7ovs/j7ppJNyPKpFiKpA217YV10CvxeyxBiV8kwiTCrUuB0IvwT6yeIdcUS9ctSL35+xj1aGvJTRBoxL0lD/QgJME/XylDQY2lrHuMMM1AukBcMRC492gWde7KQ1Bc95y8ZLW7BLe0Bjo3bC5Pp5yPjAZgzRl2mGtH7cMFekRlY5bW80Yr79/EZ7EdOztuHwWdqaOMo8pL84i1LPkiVLfPfzGjrIOGpkqn8WFAMLQoC9k0ockKX/bXbBEmaw2VEGbvglwOuX+LiPUCpebDcQp14P25I8cDAEZSL5RPDqVwhRL5Ddadddd20kG6dtFATTsc8++8zx2KTNhHvAwYxwHhiDCLKhRw9TnE7IU/pWvfBD+ZJs2J9YAkkdECgPMjW0eZ3CRdKmNsbIlzWp3yzYwl+UctWPEqPB4i5HvUhkUXuqzJKDmtouCZCDTBYS8BBX+6L2hnbIto2zWS9gnEq9i13Xg5gX6ul10Ii3f3oHJMqS+hUi1Iuhl42XurzDpZh3wnEU67VGlNYCvjH9YO54hy3Kw2kQhlEw6jxEqBAOozPcoONIbajvhcfAghBguoUdxD+SABnYPpzffhL0Q4k8llHHRWDSrWfbPxjwcR+hpLBFixbFbH3/i2NGUo0ghFLnueeeG6Mb/1E/kw5ceBinbb4cfmOX4rALeUlycIYHjjmkDajjvYaANCwQ8uLEPuVB9jkkmAi98IMUQn08bcdvbrzxxjl+r732ahQtz+FjjjmmEa4/W2+9dc5XUosqzaTf2NPpC9qcuMVN/SgxDF61H/dAc5QlZcKotAF1yYTCoS8LCfSH9kWtktogqTESVcXrrXEOI+KJEfFiXvCR6AWHH354bgvt8ceYkkfq1+i9H8vzBBjnRwGmFcrlQXM1DkCMWRukZqZMr3IfdR56B8DoDDfIOBqnTzXv+BgQvZh3FXRsqo4fjMQnpuv3X9JU3H9JPj+xcFTwIGelkpcmas8tttgiSyg777yzz5YXCk1K7M8RpH5FJYU03AZ4raocJoqHUdqGdy0LGU9pseAwB+rDRuxB6u7SQicJgnx4aAqwN2rbD57sHrwauIQfr77EJhYBRyU55UTCIomxdGAD0qdMGiW1aKxnUv+lbo2e/PRD2+JKe4rlqBf3VtMuCBc4j9tyfJtRy5IGIjzuFj5f7iC/keipO2qVyMtOAuJ44rhW2XiuS0tCupKjlpiXkjOhyoG51PzHn8SDV+Pj49ELdKIYjKMHb8suqYyZE0jXPN67XWcKRNMCZZNO+PFzapR5SHmMdcorOcMNMo4oo8L0MDA1AizJFXvfOCA7GifmyAsRuxOu/lqQGaBxAjE5CEcy9PsHIZpyooIQROnEbxUoqca0sKAu7QW6MIA2cCCCh1HaRt8pi+ejH/2oLy4f2KCtO9FjWRMYG5y2LUE85JFJeeDRL/LgRHV53FFpP/xQjvLGLTvk5xxbxbOYe9CRgzALHveoQb23a8kZz5cTf+OVypGHPP2chmJeqVt3sfOGPXjv+5KjmcYYmoQIcqTD5t0G2sJWcpxry6PwcfoL86VLJ6JWifL9EawwHtTFg4MS4xyHy3XWWaf7jUs7ILCXi3lBElYZvPF2ZtHCEUtMIGOX0+g8ePVrm6ZF6VEtM+aiqQBGVlqG2FfaIEk/bpWDaac8mAJv+wd3qKOJw97rveJHmYe0H20P5cUtlsQNMo5IV2F6GJgKAUbNI+LYy8Y1CFq8rQiCCeGTTYSByVM6DhIVoLYSsaDAaUM8uVWFPBCsaFOhPTr9iTQc4BH3AetQj2jXjX2RByvlRAI8attwTlLbISZ42aJ+k0SJSi6qmf2B+uAJm64kTcri4XQeD9q/zQLIouKhH35YkFRuaeuIPKRZpCP4tmI/hwhtttlmeZEUg8G3x+dgGNA2DtoVHXn6laNFOB4jqn7gLVwCbacqHeCgU40gQhzQEgk4DBDzh/HbdkBFqU6FjdNfbxeNWiXKx2yg79vrTduZOyXbrGdeepVBHGOzZIf286ufSUtzNhJg+iOGmrqQ+NHcibARRp443tgrrHbjkIlEjIe1tu1B1OO+fz+2B52HtE/nGJQcKPuNI/JXmC4GpkKAdYpOLxvXMGg58cQTu6dZMfCRhtmzJzsStsESMAmicwQ2Txwqoj1J+ZE0tQWDurwjETYYTbx+W6v8QQYlNfwobcPmjCpUbdCbhZxFgC1ZEeDC5Wil9EgU4E/bZKIaXidjxZN8KLsXflS3GIIotRCv83ghriVAnah26s0iKKaAG3KGBfpKWXz7XqclxXK91gGi4UH9YL9sBJgQ2dbjQkxa7Q+mTewQ8J7gxEt6HkX6Jf+o/SUv52sL71GrRLykSaXxb7RNMB4Q6VJe8gOeGPn8/IZw42SHJIm5JxK//5fQyUexkh6Guh+AY9LC1OCj4AGNmHwLfFvYM88OgVL9eEDjGyHp2eeDIMd9+NQ3yjxs22Kp9vcbR0pX39PDwCgEeA2aa4Mqg0layfZcJhsMCpra2whgvhjeJjp7lZOpuZNJ2PnS8D322KPYLptgyY6hS7bHNdlETMblJnPcKqZVoEmRyaS3ZIQqGVebbDFV1ETfo7TNJIpkp3jli7lpFxeMmzdqsoWoZ9voj0lTySTLfLE6OBwV+uHHvHeTSf3JFvNkRGToakyiyd/MFuNkEnsy9fPQZcx6BsYjc8ocz5Ixqt3mml09med//k7GwCRTZXbj6o/5wQBrianQkzHliTlpEnMyc0jfeU8exrk5zOXvZNJqXl+M0Lc2dJLzkEraxlFrA2rEgmLAhNFkmslkTljJtCuD1Q0BFoxzEIfKGPWN/Qy1EBJwBHHRqJcjVxvT1v8LiwH2K9pIy5LQwta8cteG5KwbiEqOXSt372rrKwZWPwyMIgFP7CSscdEtRy5snzgQYY/EPoZnqmzM0TY3bp01//gYwJkGVSLqyAqDY0Be6W173gcvqaasGKgYmAUMjEKA56ig7bjDrFoZTH6eXCrb8pJVrSoR1Y4hNf9FPYn61fbaKrq+ZwgDxigl84hOti85mQPVDLVsNpuC6tO2sCTT6CS7fWo2G1lbVTFQMTAUBjSvh1FBNwiwOcUk2y83VKWTTGwe1clUzMmcGDLxxS7Lgw2Td4XZxIA5qiS+HTZncxKbzUbOUKvsxK1kKuhsS4S5rFAxUDGw6mDAjlRNtqVxoA41CPBAOWqiioGKgYqBioGKgYqBsTFQCfDYKKwFVAxUDFQMVAxUDAyPgUqAh8dZzVExUDFQMVAxUDEwNgYqAR4bhbWAioGKgYqBioGKgeEx8D9toy3yL0lxsgAAAABJRU5ErkJggg==;" parent="1" vertex="1">
          <mxGeometry x="88" y="47.7" width="249" height="71.58" as="geometry" />
        </mxCell>
        <mxCell id="28LgO0DFCYYeMGnvJ6AU-8" value="TennisConnection" style="swimlane;fontStyle=1;align=center;verticalAlign=top;childLayout=stackLayout;horizontal=1;startSize=50;horizontalStack=0;resizeParent=1;resizeParentMax=0;resizeLast=0;collapsible=1;marginBottom=0;" parent="1" vertex="1">
          <mxGeometry x="164" y="232" width="160" height="58" as="geometry" />
        </mxCell>
        <mxCell id="28LgO0DFCYYeMGnvJ6AU-10" value="" style="line;strokeWidth=1;fillColor=none;align=left;verticalAlign=middle;spacingTop=-1;spacingLeft=3;spacingRight=3;rotatable=0;labelPosition=right;points=[];portConstraint=eastwest;" parent="28LgO0DFCYYeMGnvJ6AU-8" vertex="1">
          <mxGeometry y="50" width="160" height="8" as="geometry" />
        </mxCell>
        <mxCell id="28LgO0DFCYYeMGnvJ6AU-16" value="" style="html=1;verticalAlign=bottom;endArrow=open;dashed=1;endSize=8;rounded=0;entryX=0.5;entryY=1;entryDx=0;entryDy=0;" parent="1" target="28LgO0DFCYYeMGnvJ6AU-5" edge="1">
          <mxGeometry x="-0.075" y="-11" relative="1" as="geometry">
            <mxPoint x="668" y="221" as="sourcePoint" />
            <mxPoint x="627.76" y="221" as="targetPoint" />
            <mxPoint as="offset" />
          </mxGeometry>
        </mxCell>
        <mxCell id="28LgO0DFCYYeMGnvJ6AU-20" value="FootballResultEntry" style="swimlane;fontStyle=1;align=center;verticalAlign=top;childLayout=stackLayout;horizontal=1;startSize=29;horizontalStack=0;resizeParent=1;resizeParentMax=0;resizeLast=0;collapsible=1;marginBottom=0;" parent="1" vertex="1">
          <mxGeometry x="534" y="327" width="160" height="90" as="geometry" />
        </mxCell>
        <mxCell id="28LgO0DFCYYeMGnvJ6AU-21" value="" style="line;strokeWidth=1;fillColor=none;align=left;verticalAlign=middle;spacingTop=-1;spacingLeft=3;spacingRight=3;rotatable=0;labelPosition=right;points=[];portConstraint=eastwest;" parent="28LgO0DFCYYeMGnvJ6AU-20" vertex="1">
          <mxGeometry y="29" width="160" height="8" as="geometry" />
        </mxCell>
        <mxCell id="28LgO0DFCYYeMGnvJ6AU-22" value="match&#xa;score&#xa;" style="text;strokeColor=none;fillColor=none;align=left;verticalAlign=top;spacingLeft=4;spacingRight=4;overflow=hidden;rotatable=0;points=[[0,0.5],[1,0.5]];portConstraint=eastwest;" parent="28LgO0DFCYYeMGnvJ6AU-20" vertex="1">
          <mxGeometry y="37" width="160" height="53" as="geometry" />
        </mxCell>
        <mxCell id="28LgO0DFCYYeMGnvJ6AU-23" value="TennisResultEntry" style="swimlane;fontStyle=1;align=center;verticalAlign=top;childLayout=stackLayout;horizontal=1;startSize=50;horizontalStack=0;resizeParent=1;resizeParentMax=0;resizeLast=0;collapsible=1;marginBottom=0;" parent="1" vertex="1">
          <mxGeometry x="534" y="222" width="160" height="92" as="geometry" />
        </mxCell>
        <mxCell id="28LgO0DFCYYeMGnvJ6AU-24" value="" style="line;strokeWidth=1;fillColor=none;align=left;verticalAlign=middle;spacingTop=-1;spacingLeft=3;spacingRight=3;rotatable=0;labelPosition=right;points=[];portConstraint=eastwest;" parent="28LgO0DFCYYeMGnvJ6AU-23" vertex="1">
          <mxGeometry y="50" width="160" height="8" as="geometry" />
        </mxCell>
        <mxCell id="28LgO0DFCYYeMGnvJ6AU-25" value="match&#xa;score" style="text;strokeColor=none;fillColor=none;align=left;verticalAlign=top;spacingLeft=4;spacingRight=4;overflow=hidden;rotatable=0;points=[[0,0.5],[1,0.5]];portConstraint=eastwest;" parent="28LgO0DFCYYeMGnvJ6AU-23" vertex="1">
          <mxGeometry y="58" width="160" height="34" as="geometry" />
        </mxCell>
        <mxCell id="28LgO0DFCYYeMGnvJ6AU-26" value="" style="html=1;verticalAlign=bottom;endArrow=open;dashed=1;endSize=8;rounded=0;entryX=0.75;entryY=1;entryDx=0;entryDy=0;exitX=1;exitY=0.5;exitDx=0;exitDy=0;" parent="1" source="28LgO0DFCYYeMGnvJ6AU-22" target="28LgO0DFCYYeMGnvJ6AU-5" edge="1">
          <mxGeometry x="-0.075" y="-11" relative="1" as="geometry">
            <mxPoint x="751.24" y="265.9" as="sourcePoint" />
            <mxPoint x="750.9950000000001" y="151.00000000000003" as="targetPoint" />
            <mxPoint as="offset" />
            <Array as="points">
              <mxPoint x="733" y="391" />
            </Array>
          </mxGeometry>
        </mxCell>
        <mxCell id="28LgO0DFCYYeMGnvJ6AU-28" value="FootballConnection" style="swimlane;fontStyle=1;align=center;verticalAlign=top;childLayout=stackLayout;horizontal=1;startSize=50;horizontalStack=0;resizeParent=1;resizeParentMax=0;resizeLast=0;collapsible=1;marginBottom=0;" parent="1" vertex="1">
          <mxGeometry x="164" y="330" width="160" height="58" as="geometry" />
        </mxCell>
        <mxCell id="28LgO0DFCYYeMGnvJ6AU-29" value="" style="line;strokeWidth=1;fillColor=none;align=left;verticalAlign=middle;spacingTop=-1;spacingLeft=3;spacingRight=3;rotatable=0;labelPosition=right;points=[];portConstraint=eastwest;" parent="28LgO0DFCYYeMGnvJ6AU-28" vertex="1">
          <mxGeometry y="50" width="160" height="8" as="geometry" />
        </mxCell>
        <mxCell id="28LgO0DFCYYeMGnvJ6AU-32" value="EasyCompete" style="html=1;" parent="1" vertex="1">
          <mxGeometry x="632" y="791" width="156" height="50" as="geometry" />
        </mxCell>
        <mxCell id="28LgO0DFCYYeMGnvJ6AU-36" value="&amp;lt;&amp;lt;creates&amp;gt;&amp;gt;" style="html=1;verticalAlign=bottom;endArrow=open;dashed=1;endSize=8;rounded=0;entryX=1;entryY=0.25;entryDx=0;entryDy=0;" parent="1" target="28LgO0DFCYYeMGnvJ6AU-28" edge="1">
          <mxGeometry x="-0.114" relative="1" as="geometry">
            <mxPoint x="359" y="614" as="sourcePoint" />
            <mxPoint x="344" y="359" as="targetPoint" />
            <Array as="points">
              <mxPoint x="359" y="351" />
            </Array>
            <mxPoint as="offset" />
          </mxGeometry>
        </mxCell>
        <mxCell id="28LgO0DFCYYeMGnvJ6AU-37" value="&amp;lt;&amp;lt;creates&amp;gt;&amp;gt;" style="html=1;verticalAlign=bottom;endArrow=open;dashed=1;endSize=8;rounded=0;entryX=1;entryY=0.25;entryDx=0;entryDy=0;" parent="1" target="28LgO0DFCYYeMGnvJ6AU-8" edge="1">
          <mxGeometry x="-0.114" relative="1" as="geometry">
            <mxPoint x="414" y="613" as="sourcePoint" />
            <mxPoint x="379" y="350" as="targetPoint" />
            <Array as="points">
              <mxPoint x="414" y="253" />
            </Array>
            <mxPoint as="offset" />
          </mxGeometry>
        </mxCell>
        <mxCell id="28LgO0DFCYYeMGnvJ6AU-38" value="" style="html=1;verticalAlign=bottom;endArrow=open;dashed=1;endSize=8;rounded=0;entryX=0.5;entryY=1;entryDx=0;entryDy=0;" parent="1" edge="1">
          <mxGeometry x="-0.075" y="-11" relative="1" as="geometry">
            <mxPoint x="162" y="356" as="sourcePoint" />
            <mxPoint x="124.99500000000012" y="115.00000000000003" as="targetPoint" />
            <mxPoint as="offset" />
            <Array as="points">
              <mxPoint x="125" y="356" />
            </Array>
          </mxGeometry>
        </mxCell>
        <mxCell id="28LgO0DFCYYeMGnvJ6AU-39" value="" style="html=1;verticalAlign=bottom;endArrow=open;dashed=1;endSize=8;rounded=0;entryX=0.5;entryY=1;entryDx=0;entryDy=0;" parent="1" edge="1">
          <mxGeometry x="-0.075" y="-11" relative="1" as="geometry">
            <mxPoint x="239.24" y="228.9" as="sourcePoint" />
            <mxPoint x="238.99500000000012" y="114.00000000000003" as="targetPoint" />
            <mxPoint as="offset" />
          </mxGeometry>
        </mxCell>
        <mxCell id="28LgO0DFCYYeMGnvJ6AU-41" value="&lt;&lt;interface&gt;&gt;&#xa;CompetitionFactory" style="swimlane;fontStyle=1;align=center;verticalAlign=top;childLayout=stackLayout;horizontal=1;startSize=52;horizontalStack=0;resizeParent=1;resizeParentMax=0;resizeLast=0;collapsible=1;marginBottom=0;" parent="1" vertex="1">
          <mxGeometry x="288" y="791" width="282" height="108" as="geometry" />
        </mxCell>
        <mxCell id="28LgO0DFCYYeMGnvJ6AU-43" value="" style="line;strokeWidth=1;fillColor=none;align=left;verticalAlign=middle;spacingTop=-1;spacingLeft=3;spacingRight=3;rotatable=0;labelPosition=right;points=[];portConstraint=eastwest;" parent="28LgO0DFCYYeMGnvJ6AU-41" vertex="1">
          <mxGeometry y="52" width="282" height="8" as="geometry" />
        </mxCell>
        <mxCell id="28LgO0DFCYYeMGnvJ6AU-44" value="+ createConnection(): IFederationDBConnection&#xa;+ createResult(): IDBResult" style="text;strokeColor=none;fillColor=none;align=left;verticalAlign=top;spacingLeft=4;spacingRight=4;overflow=hidden;rotatable=0;points=[[0,0.5],[1,0.5]];portConstraint=eastwest;" parent="28LgO0DFCYYeMGnvJ6AU-41" vertex="1">
          <mxGeometry y="60" width="282" height="48" as="geometry" />
        </mxCell>
        <mxCell id="28LgO0DFCYYeMGnvJ6AU-45" value="&amp;lt;&amp;lt;creates&amp;gt;&amp;gt;" style="html=1;verticalAlign=bottom;endArrow=open;dashed=1;endSize=8;rounded=0;entryX=-0.015;entryY=0.346;entryDx=0;entryDy=0;entryPerimeter=0;" parent="1" target="28LgO0DFCYYeMGnvJ6AU-23" edge="1">
          <mxGeometry x="0.0011" y="-31" relative="1" as="geometry">
            <mxPoint x="424" y="614" as="sourcePoint" />
            <mxPoint x="334" y="263" as="targetPoint" />
            <Array as="points">
              <mxPoint x="424" y="430" />
              <mxPoint x="424" y="251" />
            </Array>
            <mxPoint as="offset" />
          </mxGeometry>
        </mxCell>
        <mxCell id="28LgO0DFCYYeMGnvJ6AU-46" value="&amp;lt;&amp;lt;creates&amp;gt;&amp;gt;" style="html=1;verticalAlign=bottom;endArrow=open;dashed=1;endSize=8;rounded=0;entryX=0;entryY=0.167;entryDx=0;entryDy=0;entryPerimeter=0;" parent="1" target="28LgO0DFCYYeMGnvJ6AU-20" edge="1">
          <mxGeometry x="-0.114" relative="1" as="geometry">
            <mxPoint x="507" y="615.9999999999998" as="sourcePoint" />
            <mxPoint x="472" y="353" as="targetPoint" />
            <Array as="points">
              <mxPoint x="507" y="342" />
            </Array>
            <mxPoint as="offset" />
          </mxGeometry>
        </mxCell>
        <mxCell id="28LgO0DFCYYeMGnvJ6AU-47" value="" style="endArrow=open;endSize=12;dashed=1;html=1;rounded=0;entryX=0.559;entryY=0.015;entryDx=0;entryDy=0;entryPerimeter=0;" parent="1" target="28LgO0DFCYYeMGnvJ6AU-41" edge="1">
          <mxGeometry width="160" relative="1" as="geometry">
            <mxPoint x="446" y="699" as="sourcePoint" />
            <mxPoint x="516" y="814" as="targetPoint" />
            <Array as="points" />
          </mxGeometry>
        </mxCell>
        <mxCell id="28LgO0DFCYYeMGnvJ6AU-49" value="" style="html=1;verticalAlign=bottom;endArrow=open;dashed=0;endSize=8;rounded=0;exitX=0.345;exitY=-0.053;exitDx=0;exitDy=0;entryX=0.5;entryY=0;entryDx=0;entryDy=0;exitPerimeter=0;" parent="1" source="28LgO0DFCYYeMGnvJ6AU-32" target="28LgO0DFCYYeMGnvJ6AU-5" edge="1">
          <mxGeometry x="-0.075" y="-11" relative="1" as="geometry">
            <mxPoint x="751.0440000000001" y="799.5500000000002" as="sourcePoint" />
            <mxPoint x="222.5" y="57.700000000000045" as="targetPoint" />
            <mxPoint as="offset" />
            <Array as="points">
              <mxPoint x="683" y="774" />
              <mxPoint x="683" y="764" />
              <mxPoint x="868" y="764" />
              <mxPoint x="868" y="12" />
              <mxPoint x="668" y="12" />
            </Array>
          </mxGeometry>
        </mxCell>
        <mxCell id="28LgO0DFCYYeMGnvJ6AU-48" value="" style="html=1;verticalAlign=bottom;endArrow=open;dashed=0;endSize=8;rounded=0;exitX=0.699;exitY=-0.029;exitDx=0;exitDy=0;entryX=0.5;entryY=0;entryDx=0;entryDy=0;exitPerimeter=0;" parent="1" source="28LgO0DFCYYeMGnvJ6AU-32" target="28LgO0DFCYYeMGnvJ6AU-6" edge="1">
          <mxGeometry x="-0.075" y="-11" relative="1" as="geometry">
            <mxPoint x="736" y="775" as="sourcePoint" />
            <mxPoint x="437.2399999999998" y="91.9" as="targetPoint" />
            <mxPoint as="offset" />
            <Array as="points">
              <mxPoint x="741" y="775" />
              <mxPoint x="884" y="775" />
              <mxPoint x="884" y="2" />
              <mxPoint x="213" y="2" />
            </Array>
          </mxGeometry>
        </mxCell>
        <mxCell id="28LgO0DFCYYeMGnvJ6AU-50" value="Match" style="swimlane;fontStyle=1;align=center;verticalAlign=top;childLayout=stackLayout;horizontal=1;startSize=26;horizontalStack=0;resizeParent=1;resizeParentMax=0;resizeLast=0;collapsible=1;marginBottom=0;" parent="1" vertex="1">
          <mxGeometry x="734" y="280" width="113" height="34" as="geometry" />
        </mxCell>
        <mxCell id="28LgO0DFCYYeMGnvJ6AU-52" value="" style="line;strokeWidth=1;fillColor=none;align=left;verticalAlign=middle;spacingTop=-1;spacingLeft=3;spacingRight=3;rotatable=0;labelPosition=right;points=[];portConstraint=eastwest;" parent="28LgO0DFCYYeMGnvJ6AU-50" vertex="1">
          <mxGeometry y="26" width="113" height="8" as="geometry" />
        </mxCell>
        <mxCell id="28LgO0DFCYYeMGnvJ6AU-54" value="Score" style="swimlane;fontStyle=1;align=center;verticalAlign=top;childLayout=stackLayout;horizontal=1;startSize=23;horizontalStack=0;resizeParent=1;resizeParentMax=0;resizeLast=0;collapsible=1;marginBottom=0;" parent="1" vertex="1">
          <mxGeometry x="734" y="327" width="114" height="31" as="geometry" />
        </mxCell>
        <mxCell id="28LgO0DFCYYeMGnvJ6AU-56" value="" style="line;strokeWidth=1;fillColor=none;align=left;verticalAlign=middle;spacingTop=-1;spacingLeft=3;spacingRight=3;rotatable=0;labelPosition=right;points=[];portConstraint=eastwest;" parent="28LgO0DFCYYeMGnvJ6AU-54" vertex="1">
          <mxGeometry y="23" width="114" height="8" as="geometry" />
        </mxCell>
        <mxCell id="28LgO0DFCYYeMGnvJ6AU-63" value="" style="endArrow=open;html=1;rounded=0;exitX=0.25;exitY=0;exitDx=0;exitDy=0;entryX=0.873;entryY=0.008;entryDx=0;entryDy=0;entryPerimeter=0;" parent="1" source="28LgO0DFCYYeMGnvJ6AU-32" target="28LgO0DFCYYeMGnvJ6AU-41" edge="1">
          <mxGeometry width="50" height="50" relative="1" as="geometry">
            <mxPoint x="620.4999999999998" y="760" as="sourcePoint" />
            <mxPoint x="570" y="893" as="targetPoint" />
            <Array as="points">
              <mxPoint x="671" y="760" />
              <mxPoint x="535" y="760" />
            </Array>
          </mxGeometry>
        </mxCell>
        <mxCell id="ZWEAufsqwl8ps3YUH_nG-6" value="" style="endArrow=open;html=1;rounded=0;exitX=1.025;exitY=-0.147;exitDx=0;exitDy=0;entryX=0;entryY=0.5;entryDx=0;entryDy=0;exitPerimeter=0;" parent="1" source="28LgO0DFCYYeMGnvJ6AU-25" target="28LgO0DFCYYeMGnvJ6AU-50" edge="1">
          <mxGeometry width="50" height="50" relative="1" as="geometry">
            <mxPoint x="691" y="811" as="sourcePoint" />
            <mxPoint x="554.1859999999999" y="811.864" as="targetPoint" />
            <Array as="points" />
          </mxGeometry>
        </mxCell>
        <mxCell id="ZWEAufsqwl8ps3YUH_nG-7" value="" style="endArrow=open;html=1;rounded=0;" parent="1" edge="1">
          <mxGeometry width="50" height="50" relative="1" as="geometry">
            <mxPoint x="695" y="275" as="sourcePoint" />
            <mxPoint x="731" y="346" as="targetPoint" />
            <Array as="points" />
          </mxGeometry>
        </mxCell>
        <mxCell id="ZWEAufsqwl8ps3YUH_nG-8" value="" style="endArrow=open;html=1;rounded=0;exitX=1;exitY=0.5;exitDx=0;exitDy=0;entryX=0;entryY=0.5;entryDx=0;entryDy=0;" parent="1" source="28LgO0DFCYYeMGnvJ6AU-22" target="28LgO0DFCYYeMGnvJ6AU-50" edge="1">
          <mxGeometry width="50" height="50" relative="1" as="geometry">
            <mxPoint x="708" y="285.0020000000002" as="sourcePoint" />
            <mxPoint x="744" y="307" as="targetPoint" />
            <Array as="points" />
          </mxGeometry>
        </mxCell>
        <mxCell id="ZWEAufsqwl8ps3YUH_nG-9" value="" style="endArrow=open;html=1;rounded=0;" parent="1" edge="1">
          <mxGeometry width="50" height="50" relative="1" as="geometry">
            <mxPoint x="697" y="387" as="sourcePoint" />
            <mxPoint x="729" y="355" as="targetPoint" />
            <Array as="points" />
          </mxGeometry>
        </mxCell>
        <mxCell id="BY4qRt6Kh8NHYWD66ViZ-1" value="*" style="text;html=1;strokeColor=none;fillColor=none;align=center;verticalAlign=middle;whiteSpace=wrap;rounded=0;" vertex="1" parent="1">
          <mxGeometry x="440" y="766" width="33" height="15" as="geometry" />
        </mxCell>
        <mxCell id="BY4qRt6Kh8NHYWD66ViZ-4" value="Team" style="swimlane;fontStyle=1;align=center;verticalAlign=top;childLayout=stackLayout;horizontal=1;startSize=26;horizontalStack=0;resizeParent=1;resizeParentMax=0;resizeLast=0;collapsible=1;marginBottom=0;" vertex="1" parent="1">
          <mxGeometry x="334" y="-953" width="295" height="150" as="geometry" />
        </mxCell>
        <mxCell id="BY4qRt6Kh8NHYWD66ViZ-6" value="" style="line;strokeWidth=1;fillColor=none;align=left;verticalAlign=middle;spacingTop=-1;spacingLeft=3;spacingRight=3;rotatable=0;labelPosition=right;points=[];portConstraint=eastwest;" vertex="1" parent="BY4qRt6Kh8NHYWD66ViZ-4">
          <mxGeometry y="26" width="295" height="8" as="geometry" />
        </mxCell>
        <mxCell id="BY4qRt6Kh8NHYWD66ViZ-7" value="+ getPointsTotal((type): type&#xa;+ getGoalsScoredTotal()&#xa;+ getGoalsConcededTotal()&#xa;+  getPointsAgainst(Team t)&#xa;+ getGoalsScoredAgainst(Team t)&#xa;+ getGoalsConcededAgainst(Team t)" style="text;strokeColor=none;fillColor=none;align=left;verticalAlign=top;spacingLeft=4;spacingRight=4;overflow=hidden;rotatable=0;points=[[0,0.5],[1,0.5]];portConstraint=eastwest;" vertex="1" parent="BY4qRt6Kh8NHYWD66ViZ-4">
          <mxGeometry y="34" width="295" height="116" as="geometry" />
        </mxCell>
        <mxCell id="7D6bq5xNwiRdmu4fCgVK-1" value="factory" style="text;html=1;strokeColor=none;fillColor=none;align=center;verticalAlign=middle;whiteSpace=wrap;rounded=0;" vertex="1" parent="1">
          <mxGeometry x="450" y="734" width="33" height="15" as="geometry" />
        </mxCell>
        <mxCell id="BY4qRt6Kh8NHYWD66ViZ-8" value="Round" style="swimlane;fontStyle=1;align=center;verticalAlign=top;childLayout=stackLayout;horizontal=1;startSize=26;horizontalStack=0;resizeParent=1;resizeParentMax=0;resizeLast=0;collapsible=1;marginBottom=0;" vertex="1" parent="1">
          <mxGeometry x="346" y="-768" width="298" height="124" as="geometry" />
        </mxCell>
        <mxCell id="BY4qRt6Kh8NHYWD66ViZ-10" value="" style="line;strokeWidth=1;fillColor=none;align=left;verticalAlign=middle;spacingTop=-1;spacingLeft=3;spacingRight=3;rotatable=0;labelPosition=right;points=[];portConstraint=eastwest;" vertex="1" parent="BY4qRt6Kh8NHYWD66ViZ-8">
          <mxGeometry y="26" width="298" height="8" as="geometry" />
        </mxCell>
        <mxCell id="BY4qRt6Kh8NHYWD66ViZ-11" value="+ createRanking(): " style="text;strokeColor=none;fillColor=none;align=left;verticalAlign=top;spacingLeft=4;spacingRight=4;overflow=hidden;rotatable=0;points=[[0,0.5],[1,0.5]];portConstraint=eastwest;" vertex="1" parent="BY4qRt6Kh8NHYWD66ViZ-8">
          <mxGeometry y="34" width="298" height="90" as="geometry" />
        </mxCell>
        <mxCell id="BY4qRt6Kh8NHYWD66ViZ-14" value="&lt;&lt;interface&gt;&gt;&#xa;Comparator&lt;T&gt;" style="swimlane;fontStyle=1;align=center;verticalAlign=top;childLayout=stackLayout;horizontal=1;startSize=42;horizontalStack=0;resizeParent=1;resizeParentMax=0;resizeLast=0;collapsible=1;marginBottom=0;" vertex="1" parent="1">
          <mxGeometry x="332" y="-1122" width="348" height="102" as="geometry" />
        </mxCell>
        <mxCell id="BY4qRt6Kh8NHYWD66ViZ-15" value="+ field: type" style="text;strokeColor=none;fillColor=none;align=left;verticalAlign=top;spacingLeft=4;spacingRight=4;overflow=hidden;rotatable=0;points=[[0,0.5],[1,0.5]];portConstraint=eastwest;" vertex="1" parent="BY4qRt6Kh8NHYWD66ViZ-14">
          <mxGeometry y="42" width="348" height="26" as="geometry" />
        </mxCell>
        <mxCell id="BY4qRt6Kh8NHYWD66ViZ-16" value="" style="line;strokeWidth=1;fillColor=none;align=left;verticalAlign=middle;spacingTop=-1;spacingLeft=3;spacingRight=3;rotatable=0;labelPosition=right;points=[];portConstraint=eastwest;" vertex="1" parent="BY4qRt6Kh8NHYWD66ViZ-14">
          <mxGeometry y="68" width="348" height="8" as="geometry" />
        </mxCell>
        <mxCell id="BY4qRt6Kh8NHYWD66ViZ-17" value="compare(Team team1, Team team2):int" style="text;strokeColor=none;fillColor=none;align=left;verticalAlign=top;spacingLeft=4;spacingRight=4;overflow=hidden;rotatable=0;points=[[0,0.5],[1,0.5]];portConstraint=eastwest;" vertex="1" parent="BY4qRt6Kh8NHYWD66ViZ-14">
          <mxGeometry y="76" width="348" height="26" as="geometry" />
        </mxCell>
        <mxCell id="wLMXJ7qiPHxftOgAg4Ev-1" style="edgeStyle=orthogonalEdgeStyle;rounded=0;orthogonalLoop=1;jettySize=auto;html=1;entryX=0;entryY=0.5;entryDx=0;entryDy=0;exitX=0;exitY=0.5;exitDx=0;exitDy=0;" edge="1" parent="1" source="BY4qRt6Kh8NHYWD66ViZ-11">
          <mxGeometry relative="1" as="geometry" />
        </mxCell>
        <mxCell id="BY4qRt6Kh8NHYWD66ViZ-22" value="Strategy1" style="swimlane;fontStyle=1;align=center;verticalAlign=top;childLayout=stackLayout;horizontal=1;startSize=26;horizontalStack=0;resizeParent=1;resizeParentMax=0;resizeLast=0;collapsible=1;marginBottom=0;" vertex="1" parent="1">
          <mxGeometry x="26" y="-1121" width="232" height="86" as="geometry" />
        </mxCell>
        <mxCell id="BY4qRt6Kh8NHYWD66ViZ-23" value="+ field: type" style="text;strokeColor=none;fillColor=none;align=left;verticalAlign=top;spacingLeft=4;spacingRight=4;overflow=hidden;rotatable=0;points=[[0,0.5],[1,0.5]];portConstraint=eastwest;" vertex="1" parent="BY4qRt6Kh8NHYWD66ViZ-22">
          <mxGeometry y="26" width="232" height="26" as="geometry" />
        </mxCell>
        <mxCell id="BY4qRt6Kh8NHYWD66ViZ-24" value="" style="line;strokeWidth=1;fillColor=none;align=left;verticalAlign=middle;spacingTop=-1;spacingLeft=3;spacingRight=3;rotatable=0;labelPosition=right;points=[];portConstraint=eastwest;" vertex="1" parent="BY4qRt6Kh8NHYWD66ViZ-22">
          <mxGeometry y="52" width="232" height="8" as="geometry" />
        </mxCell>
        <mxCell id="BY4qRt6Kh8NHYWD66ViZ-25" value="compare(Team team1, Team team2):int" style="text;strokeColor=none;fillColor=none;align=left;verticalAlign=top;spacingLeft=4;spacingRight=4;overflow=hidden;rotatable=0;points=[[0,0.5],[1,0.5]];portConstraint=eastwest;" vertex="1" parent="BY4qRt6Kh8NHYWD66ViZ-22">
          <mxGeometry y="60" width="232" height="26" as="geometry" />
        </mxCell>
        <mxCell id="wLMXJ7qiPHxftOgAg4Ev-2" value="strategy" style="text;html=1;align=center;verticalAlign=middle;resizable=0;points=[];autosize=1;strokeColor=none;fillColor=none;" vertex="1" parent="1">
          <mxGeometry x="272" y="-945" width="52" height="18" as="geometry" />
        </mxCell>
        <mxCell id="BY4qRt6Kh8NHYWD66ViZ-26" value="Strategy1" style="swimlane;fontStyle=1;align=center;verticalAlign=top;childLayout=stackLayout;horizontal=1;startSize=26;horizontalStack=0;resizeParent=1;resizeParentMax=0;resizeLast=0;collapsible=1;marginBottom=0;" vertex="1" parent="1">
          <mxGeometry x="24" y="-1020" width="233" height="86" as="geometry" />
        </mxCell>
        <mxCell id="BY4qRt6Kh8NHYWD66ViZ-27" value="+ field: type" style="text;strokeColor=none;fillColor=none;align=left;verticalAlign=top;spacingLeft=4;spacingRight=4;overflow=hidden;rotatable=0;points=[[0,0.5],[1,0.5]];portConstraint=eastwest;" vertex="1" parent="BY4qRt6Kh8NHYWD66ViZ-26">
          <mxGeometry y="26" width="233" height="26" as="geometry" />
        </mxCell>
        <mxCell id="BY4qRt6Kh8NHYWD66ViZ-28" value="" style="line;strokeWidth=1;fillColor=none;align=left;verticalAlign=middle;spacingTop=-1;spacingLeft=3;spacingRight=3;rotatable=0;labelPosition=right;points=[];portConstraint=eastwest;" vertex="1" parent="BY4qRt6Kh8NHYWD66ViZ-26">
          <mxGeometry y="52" width="233" height="8" as="geometry" />
        </mxCell>
        <mxCell id="BY4qRt6Kh8NHYWD66ViZ-29" value="compare(Team team1, Team team2):int" style="text;strokeColor=none;fillColor=none;align=left;verticalAlign=top;spacingLeft=4;spacingRight=4;overflow=hidden;rotatable=0;points=[[0,0.5],[1,0.5]];portConstraint=eastwest;" vertex="1" parent="BY4qRt6Kh8NHYWD66ViZ-26">
          <mxGeometry y="60" width="233" height="26" as="geometry" />
        </mxCell>
        <mxCell id="wLMXJ7qiPHxftOgAg4Ev-3" value="" style="endArrow=classic;html=1;rounded=0;exitX=0;exitY=0.5;exitDx=0;exitDy=0;entryX=0;entryY=0.5;entryDx=0;entryDy=0;" edge="1" parent="1" source="BY4qRt6Kh8NHYWD66ViZ-11" target="BY4qRt6Kh8NHYWD66ViZ-15">
          <mxGeometry width="50" height="50" relative="1" as="geometry">
            <mxPoint x="484" y="-823" as="sourcePoint" />
            <mxPoint x="534" y="-873" as="targetPoint" />
            <Array as="points">
              <mxPoint x="306" y="-689" />
              <mxPoint x="306" y="-1028" />
            </Array>
          </mxGeometry>
        </mxCell>
        <mxCell id="BY4qRt6Kh8NHYWD66ViZ-31" value="" style="html=1;verticalAlign=bottom;endArrow=block;rounded=0;exitX=0.994;exitY=0.174;exitDx=0;exitDy=0;exitPerimeter=0;entryX=0;entryY=0.25;entryDx=0;entryDy=0;" edge="1" parent="1" source="BY4qRt6Kh8NHYWD66ViZ-26" target="BY4qRt6Kh8NHYWD66ViZ-14">
          <mxGeometry width="80" relative="1" as="geometry">
            <mxPoint x="191" y="-963" as="sourcePoint" />
            <mxPoint x="271" y="-963" as="targetPoint" />
            <Array as="points">
              <mxPoint x="282" y="-1005" />
              <mxPoint x="282" y="-1096" />
            </Array>
          </mxGeometry>
        </mxCell>
        <mxCell id="BY4qRt6Kh8NHYWD66ViZ-32" value="" style="html=1;verticalAlign=bottom;endArrow=block;rounded=0;exitX=1;exitY=0.174;exitDx=0;exitDy=0;exitPerimeter=0;entryX=0.007;entryY=0.157;entryDx=0;entryDy=0;entryPerimeter=0;" edge="1" parent="1" source="BY4qRt6Kh8NHYWD66ViZ-22" target="BY4qRt6Kh8NHYWD66ViZ-14">
          <mxGeometry width="80" relative="1" as="geometry">
            <mxPoint x="193.03999999999996" y="-995.0360000000001" as="sourcePoint" />
            <mxPoint x="267" y="-1085.5" as="targetPoint" />
            <Array as="points" />
          </mxGeometry>
        </mxCell>
      </root>
    </mxGraphModel>
  </diagram>
</mxfile>
